<?xml version="1.0" encoding="UTF-8" standalone="no"?>
<svg
   xmlns:dc="http://purl.org/dc/elements/1.1/"
   xmlns:cc="http://creativecommons.org/ns#"
   xmlns:rdf="http://www.w3.org/1999/02/22-rdf-syntax-ns#"
   xmlns:svg="http://www.w3.org/2000/svg"
   xmlns="http://www.w3.org/2000/svg"
   xmlns:xlink="http://www.w3.org/1999/xlink"
   xmlns:sodipodi="http://sodipodi.sourceforge.net/DTD/sodipodi-0.dtd"
   xmlns:inkscape="http://www.inkscape.org/namespaces/inkscape"
   inkscape:version="1.0beta2 (unknown)"
   sodipodi:docname="logotype_alt.svg"
   id="svg15"
   version="1.1"
   viewBox="0 0 456 171">
  <metadata
     id="metadata19">
    <rdf:RDF>
      <cc:Work
         rdf:about="">
        <dc:format>image/svg+xml</dc:format>
        <dc:type
           rdf:resource="http://purl.org/dc/dcmitype/StillImage" />
      </cc:Work>
    </rdf:RDF>
  </metadata>
  <sodipodi:namedview
     inkscape:current-layer="svg15"
     inkscape:window-maximized="1"
     inkscape:window-y="0"
     inkscape:window-x="0"
     inkscape:cy="48.409077"
     inkscape:cx="223.02401"
     inkscape:zoom="3.8418805"
     showgrid="false"
     id="namedview17"
     inkscape:window-height="1053"
     inkscape:window-width="1920"
     inkscape:pageshadow="2"
     inkscape:pageopacity="0"
     guidetolerance="10"
     gridtolerance="10"
     objecttolerance="10"
     borderopacity="1"
     inkscape:document-rotation="0"
     bordercolor="#666666"
     pagecolor="#ffffff" />
  <defs
     id="defs3">
    <path
       d="M80.8813452,24.5162887 L83.4144361,31.7813082 C83.5464087,32.1598115 83.5624375,32.5692393 83.4604618,32.9569485 C83.4424336,33.0254913 83.4424336,33.0254913 83.3567608,33.351262 C83.2395207,33.7970963 83.2395207,33.7970963 83.0636557,34.4659566 C82.7479971,35.6665344 82.3962615,37.0046375 82.0174688,38.4460634 C80.9352091,42.5644024 79.8529518,46.6856245 78.8428612,50.5360858 C76.349401,60.0412784 74.7145052,66.2995289 74.3209799,67.8590829 C72.1784376,76.3487591 70.4786771,79.2959122 64.9840821,83.1772333 C60.1703228,86.5776196 50.1255017,93.4008044 48.1942184,94.6124624 C48.0096529,94.728256 47.8055039,94.8631958 47.5351419,95.0470105 C47.430019,95.1184819 46.9198066,95.4682417 46.7734594,95.5675964 C45.8346087,96.2049797 45.1647984,96.6134414 44.4429553,96.9504482 C43.5275636,97.3778171 42.6516746,97.6158961 41.7633808,97.6158961 C40.875087,97.6158961 39.999198,97.3778171 39.0838063,96.9504482 C38.3619633,96.6134414 37.692153,96.2049797 36.7533022,95.5675964 C36.6069551,95.4682417 36.0967426,95.1184819 35.9916198,95.0470105 C35.7212578,94.8631958 35.5171087,94.728256 35.3325433,94.6124624 C33.4012599,93.4008044 23.3564388,86.5776196 18.5426795,83.1772333 C13.0480845,79.2959122 11.3483241,76.3487591 9.20578819,67.8591085 C8.81218579,66.2995723 7.17727394,60.0413415 4.70212502,50.6058597 C3.6738245,46.6859427 2.59156194,42.5646359 1.50929697,38.4461965 C1.13050235,37.0047355 0.778765072,35.6665978 0.463104935,34.4659874 C0.287239038,33.7971088 0.287239038,33.7971088 0.169998338,33.351262 C0.084325154,33.0254818 0.084325154,33.0254818 0.0662968146,32.9569369 C-0.0356755899,32.569231 -0.0196456617,32.1598077 0.112325564,31.7813082 L2.64541647,24.5162887 L0.744248282,19.8319783 C0.450001264,19.1069796 0.60236196,18.2766645 1.13470468,17.7041209 C1.36924968,17.4529467 1.49145594,17.3225886 1.63008945,17.175159 C2.02540278,16.7547636 2.4736131,16.281287 2.96621768,15.7648256 C4.37340178,14.2894917 5.85561702,12.7639529 7.34527824,11.2686074 C8.77189653,9.8365453 10.6907038,9.06543285 12.9339641,8.80158321 C14.6896753,8.59507852 16.5187084,8.70905796 18.2933183,9.02084186 C18.3914019,9.03807431 18.4862696,9.05535733 18.5777761,9.07258527 L25.9455874,0.681817108 C26.3261615,0.248403685 26.8742926,3.99104143e-05 27.4502486,3.99104143e-05 L56.0765131,3.99104143e-05 C56.652469,3.99104143e-05 57.2006002,0.248403685 57.5811742,0.681817108 L64.9489856,9.07258527 C65.0404921,9.05535733 65.1353598,9.03807431 65.2334434,9.02084186 C67.0080532,8.70905796 68.8370864,8.59507852 70.5927976,8.80158321 C72.8360578,9.06543285 74.7548651,9.8365453 76.1814834,11.2686074 C77.6711446,12.7639529 79.1533599,14.2894917 80.560544,15.7648256 C81.0531485,16.281287 81.5013589,16.7547636 81.8966722,17.175159 C82.0353057,17.3225886 82.157512,17.4529467 82.2622266,17.5649698 C82.9243997,18.2766645 83.0767604,19.1069796 82.7825134,19.8319783 L80.8813452,24.5162887 Z M76.8466179,25.125606 C76.6855011,24.6635158 76.6981392,24.1583584 76.8821601,23.7049472 L78.583653,19.5126191 C78.2985902,19.2109157 77.9907853,18.8866058 77.6628766,18.5428165 C76.2745271,17.0872294 74.8121135,15.5820711 73.3447214,14.1090796 C72.6380718,13.3997335 71.5458311,12.960794 70.1256392,12.7937527 C68.8096274,12.6389649 67.3487562,12.7300017 65.9254945,12.9800567 C65.600043,13.0372358 65.3045689,13.0981632 65.0462999,13.1583919 C64.8991914,13.1926978 64.8028073,13.2174937 64.7641997,13.2282589 C64.0235601,13.4347772 63.2303532,13.1984707 62.7223856,12.6199762 L55.1705106,4.01958878 L28.3562511,4.01958878 L20.8043761,12.6199762 C20.2964085,13.1984707 19.5032016,13.4347772 18.7625619,13.2282589 C18.7239543,13.2174937 18.6275703,13.1926978 18.4804618,13.1583919 C18.2221927,13.0981632 17.9267187,13.0372358 17.6012672,12.9800567 C16.1780055,12.7300017 14.7171342,12.6389649 13.4011224,12.7937527 C11.9809305,12.960794 10.8886898,13.3997335 10.1820403,14.1090796 C8.71464811,15.5820711 7.25223458,17.0872294 5.86388504,18.5428165 C5.53597639,18.8866058 5.22817147,19.2109157 4.94310869,19.5126191 L6.64460154,23.7049472 C6.82862244,24.1583584 6.84126052,24.6635158 6.68014374,25.125606 L4.09951213,32.5269744 C4.16954311,32.7932929 4.19509023,32.8904574 4.3399659,33.4414695 C4.65566645,34.6422336 5.00744536,35.9805297 5.38628357,37.4221565 C6.46868382,41.5411108 7.55108647,45.6629511 8.56134504,49.514091 C11.0611152,59.0434305 12.694184,65.2946066 13.0925809,66.8731393 C15.0201641,74.5110551 16.2472862,76.6387176 20.8519243,79.891383 C25.6109945,83.2531376 35.6027327,90.0402644 37.4593692,91.2050902 C37.6929933,91.3516624 37.9343519,91.5111972 38.2418724,91.7202755 C38.3558945,91.7977973 38.864614,92.1465337 39.0013166,92.2393407 C39.7762931,92.7654702 40.2958424,93.0823002 40.7763196,93.3066206 C41.2041645,93.5063685 41.5351948,93.5963472 41.7633808,93.5963472 C41.9915668,93.5963472 42.3225971,93.5063685 42.7504421,93.3066206 C43.2309192,93.0823002 43.7504686,92.7654702 44.5254451,92.2393407 C44.6621476,92.1465337 45.1708671,91.7977973 45.2848892,91.7202755 C45.5924098,91.5111972 45.8337683,91.3516624 46.0673924,91.2050902 C47.924029,90.0402644 57.9157672,83.2531376 62.6748373,79.891383 C67.2794754,76.6387176 68.5065975,74.5110551 70.434163,66.8732097 C70.8324841,65.29465 72.4655266,59.0434936 74.9471304,49.5834977 C75.9756932,45.6626199 77.0580914,41.5408614 78.1404871,37.4220048 C78.5193237,35.9804121 78.8711011,34.6421498 79.1868003,33.4414174 C79.3316715,32.8904349 79.3572211,32.7932632 79.4272474,32.5269684 L76.8466179,25.125606 Z M61.9409214,17.1787651 C61.9409214,17.1787651 72.4244956,29.9002096 72.4244956,32.6191066 C72.4244956,35.3380036 71.1056995,36.0555928 69.7797469,37.4690202 C68.4537942,38.8824475 62.6627406,45.0553913 61.9190541,45.8480121 C61.1753676,46.6408325 59.6271638,47.8427346 60.5378369,50.0060786 C61.4485099,52.1694226 62.7919564,54.9222435 61.2980232,57.714376 C59.8038913,60.5065086 57.2444249,62.3701254 55.6043785,62.062017 C53.9643321,61.7537091 50.112708,59.7332444 48.6963043,58.810316 C47.2799005,57.8873877 42.7907457,54.1709299 42.7907457,52.7489218 C42.7907457,51.3271133 47.4311824,48.7740441 48.28838,48.1939463 C49.1459752,47.6140479 53.0562434,45.3688876 53.1363572,44.4876656 C53.2162721,43.6062441 53.1858567,43.3478242 52.0318605,41.170312 C50.8778642,38.9926002 48.7996769,36.086723 49.1455776,34.1532629 C49.4914783,32.2200025 52.8431367,31.2146591 55.2350202,30.3078945 C57.626506,29.4013295 62.2315575,27.6889731 62.8066671,27.4227707 C63.3821743,27.1563687 63.2334768,26.902738 61.4906541,26.7369102 C59.7482291,26.5710824 54.8030419,25.9121615 52.5735728,26.5359613 C50.3441036,27.159761 46.5352201,28.1088307 46.2266926,28.612101 C45.918165,29.1153713 45.6460167,29.1323333 45.9628936,30.8684363 C46.2795716,32.6045393 47.9108711,40.9350401 48.0691108,42.4147187 C48.2275492,43.8943973 48.5372695,44.8726016 46.9479154,45.2373828 C45.3583625,45.602164 42.6828008,46.2355422 41.7633808,46.2355422 C40.8439609,46.2355422 38.1682003,45.602164 36.5788463,45.2373828 C34.9892934,44.8726016 35.2990137,43.8943973 35.4574521,42.4147187 C35.6158905,40.9350401 37.2469912,32.6045393 37.5638681,30.8684363 C37.8805461,29.1323333 37.6083978,29.1153713 37.3000691,28.612101 C36.9915416,28.1088307 33.1824592,27.159761 30.9529901,26.5359613 C28.723521,25.9121615 23.7785326,26.5710824 22.0359087,26.7369102 C20.2932849,26.902738 20.1445873,27.1563687 20.7198957,27.4227707 C21.2952041,27.6889731 25.9002556,29.4013295 28.2917415,30.3078945 C30.6834261,31.2146591 34.0352834,32.2200025 34.3811841,34.1532629 C34.7270848,36.086723 32.6486987,38.9926002 31.4949012,41.170312 C30.3409049,43.3478242 30.3102907,43.6062441 30.3904045,44.4876656 C30.4703195,45.3688876 34.3807865,47.6140479 35.2381829,48.1939463 C36.0955792,48.7740441 40.7358172,51.3271133 40.7358172,52.7489218 C40.7358172,54.1709299 36.2468611,57.8873877 34.8304574,58.810316 C33.4140537,59.7332444 29.5624295,61.7537091 27.9223831,62.062017 C26.2823367,62.3701254 23.7228704,60.5065086 22.2287384,57.714376 C20.7348052,54.9222435 22.0782517,52.1694226 22.988726,50.0060786 C23.899399,47.8427346 22.351394,46.6408325 21.6075087,45.8480121 C20.864021,45.0553913 15.0727687,38.8824475 13.746816,37.4690202 C12.4208633,36.0555928 11.102266,35.3380036 11.102266,32.6191066 C11.102266,29.9002096 21.5858402,17.1787651 21.5858402,17.1787651 C21.5858402,17.1787651 30.4321511,18.8749577 31.6249121,18.8749577 C32.8176732,18.8749577 35.4019887,17.8771973 37.7875108,17.078989 C40.1730328,16.2807808 41.7633808,16.2749937 41.7633808,16.2749937 C41.7633808,16.2749937 43.3537289,16.2807808 45.7392509,17.078989 C48.1247729,17.8771973 50.7090885,18.8749577 51.9018495,18.8749577 C53.0946105,18.8749577 61.9409214,17.1787651 61.9409214,17.1787651 Z M54.0817793,65.8408149 C54.7306413,66.2486993 54.3348434,67.0175735 53.7438303,67.4370319 C53.1526185,67.8564904 45.2086313,74.0314297 44.4377101,74.7138978 C43.6665901,75.3965654 42.5336659,76.523835 41.7633411,76.523835 C40.9930162,76.523835 39.8598933,75.3965654 39.0889721,74.7138978 C38.3178521,74.0314297 30.3740637,67.8564904 29.7828518,67.4370319 C29.1916399,67.0175735 28.7960408,66.2486993 29.4449028,65.8408149 C30.0939636,65.43313 32.1242417,64.40404 34.9258385,62.9487067 C37.7270378,61.493573 41.2184481,60.2563502 41.7633411,60.2563502 C42.3082341,60.2563502 45.7994456,61.493573 48.6010424,62.9487067 C51.4024405,64.40404 53.4327185,65.43313 54.0817793,65.8408149 Z"
       id="logotype_alt-a" />
  </defs>
  <g
     id="g13"
     fill-rule="evenodd"
     fill="none">
    <rect
       id="rect5"
       fill-rule="nonzero"
       fill="#FF2000"
       height="171"
       width="456" />
    <g
       id="g11"
       transform="translate(65 34)">
      <use
         id="use7"
         xlink:href="#logotype_alt-a"
         transform="translate(.148 .223)"
         fill-rule="nonzero"
         fill="#FFF" />
      <path
         id="path9"
         transform="translate(106.914 19.353)"
         d="M.161595895 33.8908535L.161595895.152055833 3.384066.152055833C6.00944291.152055833 8.13773141 2.28366133 8.13773141 4.91312997L8.13773141 19.9143474C13.3020356 15.2996607 17.6937821 13.4523918 23.5471241 13.3338877 34.7735697 13.1038505 44.5175397 21.4549 45.4432169 32.6639881 46.5498535 46.0549448 36.8267633 56.1347592 24.1596022 56.1347592 10.2535649 56.1347592.161595895 47.4979058.161595895 33.8908535zM8.00549182 36.5397674C8.7919694 43.5105933 15.438749 49.2684956 22.4474475 49.3800288 31.5789395 49.5194453 37.8011604 43.5593891 37.8011604 34.7412943 37.8011604 25.9231994 31.718139 20.1025597 22.8441663 20.1025597 13.3577154 20.0816473 6.92669513 26.982765 8.00549182 36.5397674zM58.7506961 14.1773577L58.7506961 20.1862097C63.7688406 14.6095489 66.7407515 13.1108213 72.6149735 13.1108213 74.3237081 13.1126659 76.0296073 13.2501897 77.7166378 13.5221L77.7166378 21.5036958C75.916434 21.0080739 74.0573864 20.7595019 72.1904148 20.7647882 67.9378679 20.7647882 64.3673988 22.1589534 61.7504468 24.7939256 59.4536539 27.101269 58.771576 28.9067129 58.771576 32.5315424L58.771576 54.7545356 50.5031214 54.7545356 50.5031214 14.1773577 58.7506961 14.1773577zM79.6793518 27.5961977C80.1039105 23.6437393 80.8695082 21.5036958 82.5677429 19.4473021 85.9711725 15.2648065 92.0959537 13.1108213 100.768087 13.1108213 107.658466 13.1108213 112.676611 14.1843285 116.16356 16.4847011 119.058911 18.3737949 120.249067 21.1760669 120.249067 26.1114117L120.249067 44.1309968C120.249067 48.0834552 121.272184 49.4776204 124.077056 49.4009413 124.703675 49.3787991 125.328654 49.322952 125.94929 49.2336415L125.94929 54.6639149C124.554907 55.1411817 123.086128 55.3631406 121.613223 55.3191725 116.428039 55.3191725 114.047726 53.7577075 112.433011 49.2266706 107.331347 53.9180365 102.055683 55.8907803 94.4901863 55.8907803 84.3703774 55.8907803 78.1620765 51.2830643 78.1620765 43.7894264 78.1177378 39.5161917 80.627691 35.6301297 84.5374169 33.9187368 87.5998075 32.6012507 89.4720417 32.189972 98.2276949 31.2837646 105.709672 30.544857 106.990308 30.3775572 109.113101 29.7153288 111.409894 28.9764212 112.433011 27.742585 112.433011 25.6861913 112.433011 21.3224543 108.779022 19.3497105 101.123046 19.3497105 93.8846682 19.3497105 90.1541197 20.7857007 88.6577242 24.4523551 87.9165604 26.3273457 86.1123526 27.563292 84.0989382 27.5752852L79.6793518 27.5961977zM112.391251 34.511257C107.145554 36.0393784 101.758935 37.0319675 96.3137007 37.4738581 88.9152435 38.2127656 86.6184505 39.6139016 86.6184505 43.3154102 86.6184505 47.4281975 90.0218801 49.5891536 96.7382594 49.5891536 102.264482 49.5891536 106.43351 48.1949884 109.412381 45.4763663 111.792693 43.2526728 112.391251 41.6912078 112.391251 37.8084577L112.391251 34.511257zM145.910509 54.7475648L143.780755 54.7475648C141.904558 54.759427 140.188274 53.6911778 139.368129 52.0010594L121.529703 14.1773577 126.485208 14.1773577C129.372891 14.1542639 132.001758 15.8412205 133.187668 18.4783573L145.089231 45.6645786 157.387513 18.3737949C158.590942 15.7782043 161.197927 14.1265396 164.055173 14.1494744L168.558279 14.1492386 150.302255 52.0428843C149.473567 53.7099106 147.769789 54.7591917 145.910509 54.7475648zM174.147142 36.8116296C174.996259 44.6328963 181.10712 49.4845912 190.217733 49.4845912 195.388997 49.4845912 199.265705 47.9440387 201.666897 44.8699044 203.06741 43.1070606 205.194371 42.0804216 207.44368 42.081574L212.239105 42.081574C208.063118 51.2970059 200.588101 55.8280428 189.445175 55.8280428 175.525218 55.8280428 166.143166 47.3515184 166.143166 34.6785568 166.143166 22.0055952 175.754897 13.1177921 189.619174 13.1177921 199.648504 13.1177921 207.715119 17.6418582 210.965429 25.219146 212.413104 28.704559 213.004703 31.7996057 213.004703 36.8186004L174.147142 36.8116296zM204.590088 30.5378862C202.717854 23.3788479 197.191631 19.3427397 189.535655 19.3427397 181.879678 19.3427397 176.353455 23.3788479 174.397701 30.5378862L204.590088 30.5378862z"
         fill-rule="nonzero"
         fill="#FFF" />
    </g>
  </g>
  <path
     inkscape:connector-curvature="0"
     d="m 172.8309,59.479344 c 1.49223,1.949963 2.72031,4.085159 3.86156,6.254233 1.45145,2.741865 2.87245,5.496521 4.12747,8.334529 0.94036,2.309284 1.89726,4.61863 2.63774,7.001677 0.0497,0.184095 0.1029,0.367293 0.14917,0.552285 0.0609,0.243361 0.075,0.497967 0.14873,0.737736 0.18497,0.6012 0.54776,1.1715 0.83802,1.723111 0.89846,1.620188 1.70261,3.29022 2.34901,5.026653 0.0611,0.184805 0.12214,0.36961 0.18321,0.554415 0,0 5.57256,-3.089126 5.57256,-3.089126 v 0 c -0.0737,-0.185228 -0.14745,-0.370455 -0.22118,-0.555683 -0.73344,-1.717911 -1.55843,-3.391368 -2.3827,-5.067088 -0.19543,-0.416412 -0.3952,-0.814689 -0.55451,-1.245793 -0.20561,-0.556382 -0.29,-1.155535 -0.53622,-1.699089 -0.89071,-2.336126 -1.9078,-4.623414 -2.87942,-6.926353 -1.26268,-2.852491 -2.58261,-5.680967 -4.02814,-8.445791 -1.1939,-2.167633 -2.49065,-4.270425 -3.74516,-6.402759 0,0 -5.52014,3.247043 -5.52014,3.247043 z"
     id="path27"
     style="fill:#ff2000;fill-opacity:1" />
  <path
     inkscape:connector-curvature="0"
     d="m 170.71353,56.296103 c 0.22433,1.996043 0.15508,4.008988 0.23975,6.012872 0.0468,2.541461 -0.11328,5.083626 -0.27891,7.618932 -0.0776,2.614012 0.0984,5.223782 0.0958,7.83847 -0.048,1.507824 0.0114,3.015456 0.0228,4.523261 0.003,0.419173 -0.0176,0.838896 0.003,1.257549 0.0326,0.646023 0.21607,2.052159 0.29302,2.68281 0.0656,0.46913 0.12068,0.939853 0.19682,1.407391 0.40321,2.476135 0.20258,0.720879 0.53939,3.260375 0.20113,1.516456 0.34441,3.040819 0.53645,4.558615 0.32012,2.429754 0.44704,4.871342 0.55515,7.317142 0.12727,1.6317 0.0371,3.26809 0.0697,4.90111 0.0109,0.12823 0.0219,0.25646 0.0328,0.38469 0,0 13.43516,-7.05526 13.43516,-7.05526 v 0 c -0.0166,-0.0939 -0.0331,-0.18788 -0.0497,-0.28181 -0.19332,-1.558356 -0.3265,-3.12435 -0.43175,-4.690862 -0.16011,-2.46795 -0.15728,-4.957224 -0.70623,-7.381419 -0.48191,-3.054212 -0.92152,-6.114346 -1.22262,-9.192493 -0.24025,-2.745599 -0.3776,-5.502012 -0.37941,-8.258645 0.007,-2.655912 0.16884,-5.303031 0.23209,-7.957457 -0.0138,-2.523529 0.0654,-5.046138 0.0821,-7.569593 0.0845,-2.085423 0.0214,-4.178696 0.23975,-6.257194 0,0 -13.50573,6.881516 -13.50573,6.881516 z"
     id="path29"
     style="fill:#ff2000;fill-opacity:1" />
  <path
     inkscape:connector-curvature="0"
     d="m 167.68967,59.042631 c 0.51337,2.460568 0.55485,4.996246 0.6729,7.499417 0.21185,3.059895 0.11111,6.129048 0.23356,9.191735 0.0331,0.333009 0.0432,0.669104 0.0992,0.999027 0.0911,0.536508 0.46638,1.906698 0.59558,2.401567 0.3739,1.432213 0.756,2.860868 1.1089,4.298453 0.43498,1.769537 0.86243,3.539926 1.18177,5.334403 0,0 13.1761,-7.139115 13.1761,-7.139115 v 0 c -0.57934,-1.683682 -1.14609,-3.372563 -1.57561,-5.102294 -0.62036,-2.505391 -1.19758,-5.030874 -1.47018,-7.600978 -0.34367,-2.981463 -0.4853,-5.980846 -0.51491,-8.981566 -0.0694,-2.654751 -0.0346,-5.30951 -0.11747,-7.963976 0,0 -13.38984,7.063327 -13.38984,7.063327 z"
     id="path31"
     style="fill:#ff2000;fill-opacity:1" />
  <path
     inkscape:connector-curvature="0"
     d="m 165.5147,58.454314 c 1.04955,0.196736 2.0295,0.631568 3.03484,0.973615 0.65442,0.222655 1.31519,0.42622 1.97192,0.641987 1.28248,0.447503 2.58482,0.830481 3.88918,1.206828 0.082,0.03455 0.16392,0.06911 0.24587,0.103664 3.99906,-3.052876 15.68487,-5.736126 11.99719,-9.158629 -10.38708,-9.640134 -13.17262,5.454411 -13.22976,10.373379 -0.008,1.196196 0.14473,2.379818 0.3663,3.552323 0.0424,0.224183 0.0598,0.455019 0.1308,0.671841 0.0867,0.264746 0.2262,0.509172 0.33931,0.763757 0.63329,1.222872 1.54138,2.262372 2.37897,3.343142 0.59373,0.766105 0.99048,1.339291 1.55237,2.127568 0.65267,0.913446 1.23802,1.87146 1.82691,2.826302 0.0473,0.07669 0.64011,1.047426 0.74518,1.183285 0.13501,0.174562 0.29662,0.326819 0.44493,0.490228 0.47118,0.396826 0.63095,0.58944 1.22667,0.834729 1.20876,0.497708 2.74186,0.692855 4.03134,0.888003 1.16139,0.152904 2.32187,0.332983 3.49073,0.420421 0.0848,0.0036 0.16959,0.01378 0.25442,0.01086 0.47951,-0.01655 0.96306,-0.119378 1.44173,-0.15157 0.60335,-0.04058 1.071,-0.04137 1.67566,-0.05212 1.19794,-0.04503 2.39485,0.04263 3.5925,0.0304 1.41562,-0.118793 2.82759,-0.279136 4.24768,-0.361199 2.52842,-0.149609 5.01028,0.305144 7.47263,0.808963 6.41494,1.425693 3.27786,0.536285 15.30394,-6.8667 0.19027,-0.117125 -0.47578,-1.430217 -0.53442,-1.555736 -1.383,-1.83781 -3.43998,-2.913595 -5.43415,-3.9561 -1.40473,-0.717565 -2.82273,-1.411683 -4.27408,-2.030414 -0.12462,-0.04987 -0.2456,-0.110066 -0.37387,-0.149617 -0.16986,-0.05238 -1.01953,-0.236584 -1.14838,-0.265906 -0.79388,-0.180659 -1.58052,-0.368964 -2.36458,-0.588766 -1.05675,-0.33727 -2.09812,-0.719219 -3.16774,-1.014978 -0.47331,-0.09841 -0.94613,-0.142705 -1.41465,-0.269207 -0.56247,-0.09845 -1.12655,-0.192461 -1.68785,-0.297557 -0.53583,-0.106484 -1.07373,-0.197189 -1.6064,-0.318566 -5.42029,-0.641888 -0.47911,-0.124982 -13.7077,7.526199 -0.14197,0.08212 -0.54302,0.697608 -0.59949,0.78801 -0.0707,0.113129 -0.57692,1.004533 -0.63771,1.111232 -0.39577,0.536908 -0.70837,1.290603 -1.32282,1.632121 -0.0948,0.05267 -0.40291,0.154807 -0.30961,0.0996 4.24594,-2.512014 8.51619,-4.9827 12.77428,-7.47405 -0.0329,0.763434 -0.54274,0.254347 -0.83588,-0.01608 -0.49296,-0.503773 -0.45794,-1.122226 -0.39033,-1.77968 0.0529,-0.127579 0.074,-0.273603 0.15866,-0.382739 0.21272,-0.274303 0.96859,-0.455406 0.74104,-0.317396 -24.95039,18.29592 -15.92413,8.509196 -11.45046,6.905857 0.17285,-0.03962 0.34383,-0.08855 0.51855,-0.11887 0.77187,-0.133953 0.37007,0.0024 1.13565,-0.16625 0.68846,-0.151635 1.35366,-0.320097 2.05236,-0.428743 1.00113,-0.102323 2.03428,-0.05124 2.99865,0.250595 0.61463,0.224005 1.0783,0.68741 1.56172,1.108554 1.00277,1.003215 1.76893,2.2234 2.55288,3.398348 1.50239,2.450391 3.46474,4.564963 5.37609,6.695786 1.05226,1.301401 2.25267,2.442737 3.50501,3.544881 1.46812,1.232926 2.83531,2.580659 4.14286,3.981071 0.56455,0.582799 1.13266,1.168533 1.46431,1.916288 0.27298,0.966783 -0.0149,1.88311 -0.27445,2.817301 -0.65449,2.028522 -1.63743,3.938671 -2.77184,5.737635 -0.53446,0.743446 -0.94737,1.569716 -1.49795,2.299706 -0.76168,1.1803 -1.62052,2.28186 -2.53338,3.34806 -0.87274,0.95857 -1.77927,1.88318 -2.67143,2.82444 -0.91569,0.85589 -1.82529,1.75022 -2.88913,2.42611 -0.23981,0.15236 -0.99139,0.55553 -0.74601,0.4123 4.02903,-2.35164 8.06476,-4.69177 12.09714,-7.03766 -0.97187,0.59164 -2.02377,0.87629 -3.16173,0.66082 -0.38374,-0.0727 -0.75329,-0.20667 -1.12994,-0.31 -2.44455,-0.83196 -4.82481,-1.84519 -7.17926,-2.90284 -1.22726,-0.60404 -2.43923,-1.24345 -3.60422,-1.961178 -0.57181,-0.359265 -1.05754,-0.830933 -1.60151,-1.227284 -0.38743,-0.270636 -0.83111,-0.359512 -1.29193,-0.395938 -0.23462,0.03519 -0.63588,-0.120434 -0.82738,0.04129 0.0192,0.109166 0.24426,0.77669 0.26896,0.328099 -0.47823,-0.788082 -0.67196,-1.694464 -1.01723,-2.538576 -0.2113,-0.378983 -0.47542,-0.741405 -0.84618,-0.978565 -0.0396,-0.02534 -0.13461,-0.110472 -0.12558,-0.06432 0.0174,0.08879 0.10426,0.147882 0.15639,0.221823 -24.68763,16.998709 -16.53702,7.924159 -11.31672,8.357709 0.87775,0.0729 1.74804,0.22846 2.61736,0.36465 1.80042,0.20271 3.57981,0.50254 5.34417,0.91177 1.81301,0.40749 3.57692,0.97934 5.3093,1.64603 0.73307,0.25695 1.41549,0.62704 2.11598,0.95681 1.51875,0.41954 3.09686,0.53221 4.66298,0.64804 1.37897,0.11036 2.76116,0.18186 4.13979,0.29568 13.69794,-7.945072 13.3039,-3.38627 13.2383,-11.491906 -0.01,-1.471942 0.0634,-2.945866 -0.0395,-4.414793 -0.10639,-1.77184 -0.20423,-3.548157 -0.0854,-5.322205 0.0912,-1.360528 0.16286,-1.638643 0.36807,-2.958721 0.19492,-1.083333 0.4493,-2.159667 0.85372,-3.185784 0.0852,-0.216293 0.36949,-0.883148 0.56382,-1.091978 0.0852,-0.09157 0.21443,-0.128857 0.32165,-0.193286 -4.20674,2.538468 -8.3802,5.132935 -12.62023,7.615404 -0.0764,0.04474 0.0351,-0.173636 0.0565,-0.259554 0.0129,-0.05161 0.0331,-0.101182 0.0462,-0.152716 0.005,-0.01961 -0.002,-0.07756 0.008,-0.06017 0.0625,0.104911 0.10836,0.387999 0.12739,0.478335 2.11055,6.706162 5.30768,-0.270434 14.79793,-4.947986 0.11185,-0.274669 0.20687,-0.556807 0.33555,-0.824008 0.1625,-0.337432 0.35776,-0.658082 0.53664,-0.987123 0.20416,-0.399509 0.41973,-0.793389 0.61247,-1.198527 0.67538,-1.419596 1.28184,-2.878259 1.90638,-4.32073 0.66189,-1.639453 1.38072,-3.268864 1.75424,-5.003755 0.15176,-0.470974 -0.043,-1.037687 0.19966,-1.477891 0.0591,0.01789 0.12299,0.02414 0.17718,0.05366 4.30174,2.343613 -8.34885,5.128469 -12.57687,7.602589 -0.11108,0.065 0.24395,-0.08235 0.36746,-0.118538 0.62075,-0.181895 0.13942,-0.0032 0.71354,-0.236042 0.5695,-0.275403 1.13068,-0.493048 1.7578,-0.585851 1.03978,-0.01553 2.03465,-0.249216 3.02019,-0.557752 5.13913,-1.871352 9.55464,-5.231497 14.28522,-8.00296 0.0766,-0.04486 0.0819,-0.157869 0.13087,-0.231853 0.035,-0.05285 0.0802,-0.09819 0.1203,-0.147289 0.10983,-0.306828 0.17582,-0.570393 0.48963,-0.722728 0.0581,-0.02818 0.23829,-0.09676 0.18281,-0.06379 -4.28375,2.545438 -8.58061,5.06877 -12.87091,7.603154 -0.1451,-0.256502 -0.23838,-0.564575 -0.42411,-0.797762 -0.0121,-0.01516 -0.0437,-0.04333 -0.0521,-0.02584 -0.0484,0.101504 3.6e-4,0.224964 0.003,0.337416 0.0308,0.231885 0.005,0.469162 0.0388,0.700649 0.057,0.392887 0.16583,0.776798 0.22967,1.168624 0.0835,0.512518 0.0981,0.706685 0.15434,1.220436 0.13047,0.698544 -0.22322,1.29787 -0.3704,1.948641 -0.069,0.304996 -0.10495,0.906756 -0.12864,1.201323 0.0193,0.271688 0.006,0.547675 0.0579,0.815063 0.0465,0.239596 0.6807,2.370998 0.72186,2.514035 0.42883,1.490149 0.81586,2.988278 1.19057,4.492775 0.56179,2.38175 0.8167,4.81155 0.87332,7.253229 -0.0367,1.903441 0.17646,3.791786 0.24481,5.691953 0.0789,1.792022 0.0422,3.586562 -0.0427,5.377522 -0.0169,0.65356 -0.13671,1.30676 0.006,1.94855 0.26609,1.4849 0.27297,3.00602 0.24711,4.51031 -0.0653,0.40513 0.11239,1.03006 -0.20478,1.37918 -0.1247,0.13727 -0.71237,0.14848 -0.5539,0.0521 4.1985,-2.55189 8.47438,-4.97422 12.71157,-7.46133 -0.0817,0.0686 -0.14731,0.16308 -0.24507,0.20576 -0.86348,0.37698 -2.23464,-0.68632 -2.86827,-1.14324 -1.35239,-1.06525 -2.56926,-2.28275 -3.76601,-3.51604 -0.63784,-0.738435 -1.4418,-1.356822 -1.88189,-2.243573 -0.49324,-0.80191 -0.45025,-1.624373 -0.27213,-2.515872 0.65851,-2.00263 1.88398,-3.763473 3.04018,-5.506593 1.07888,-1.584721 2.34403,-3.029292 3.67574,-4.404035 0.38271,-0.507948 0.83596,-0.986472 1.15529,-1.540621 0.17991,-0.312201 0.31596,-0.64798 0.48854,-0.964294 0.48744,-0.893447 1.01639,-1.76362 1.52482,-2.645294 1.52772,-2.507624 2.91465,-5.127689 4.66506,-7.491781 0.50683,-0.5898 1.12561,-1.189927 1.89868,-1.394638 -4.28799,2.461922 -8.56715,4.939295 -12.86398,7.385764 -0.26884,0.153071 0.15612,-0.185252 0.37116,-0.264018 0.46123,-0.168946 1.0065,-0.154503 1.48575,-0.186324 3.29043,-0.106127 6.56795,-0.371191 9.84325,-0.691489 2.28332,-0.237372 4.57237,-0.397799 6.86668,-0.466362 0.12297,-0.0021 0.63812,-0.02515 0.79947,0.01747 0.10746,0.02838 0.20693,0.201418 0.30134,0.142763 4.77288,-2.965181 16.37164,-4.553039 12.23922,-9.066795 -0.12957,-0.141524 -0.30412,-0.234053 -0.45618,-0.35108 -1.53335,-0.957643 -3.26236,-1.566331 -4.94389,-2.21299 -1.77498,-0.689854 -3.62648,-1.157441 -5.45027,-1.702189 -1.44557,-0.490223 -2.89547,-0.964949 -4.37661,-1.336138 -1.00748,-0.263708 -2.05763,-0.173554 -3.08798,-0.169373 -0.90919,-0.02777 -1.81309,-0.134699 -2.71695,-0.229916 -0.16092,-0.02568 -0.67972,-0.111791 -0.77339,-0.106116 -0.16285,0.0099 -0.33324,0.03813 -0.47461,0.119543 -4.01084,2.309705 -10.83967,3.93811 -13.77715,8.503236 -0.55166,1.030586 -0.38461,1.790729 -0.10009,2.881279 0.42775,1.387594 1.16974,2.65824 1.86709,3.925478 0.42003,0.672854 0.68933,1.460045 1.19172,2.082521 0.30328,0.375766 0.45803,0.4661 0.8278,0.758888 0.42621,0.289386 0.88724,0.489684 1.39057,0.595483 0.13643,0.02868 0.29066,0.132654 0.41304,0.06586 13.41483,-7.321553 12.05987,-2.637443 13.48377,-8.102781 0.37456,-1.046909 0.48591,-2.168463 0.52026,-3.273392 -0.0109,-0.83691 0.21663,-1.973577 0.9095,-2.533326 0.39193,-0.31662 3.63968,-2.074605 3.67311,-2.093051 -2.85836,1.718266 -5.8738,3.198842 -8.57507,5.154797 -1.10472,0.799907 2.47896,-1.140423 3.74198,-1.655225 1.47256,-0.600208 2.96183,-1.160302 4.46171,-1.688564 2.60843,-0.918703 5.94341,-1.934224 8.63437,-2.650687 1.27575,-0.339667 2.56497,-0.626573 3.84745,-0.939859 4.09515,-0.891485 8.2514,-1.640976 12.45587,-1.477048 1.7615,0.04447 2.96829,1.00529 4.36627,1.968159 1.92961,1.302074 3.75115,2.77521 5.3505,4.468974 0.0728,0.07071 0.79236,0.997014 0.7257,1.110222 -0.0428,0.07269 -0.16756,-0.02165 -0.25186,-0.02485 -0.22904,-0.0087 -0.46627,-0.07065 -0.68753,-0.01084 -0.32212,0.08707 -0.59951,0.293177 -0.89926,0.439766 21.13324,-12.294533 14.16372,-7.964055 9.92123,-5.87714 -1.17586,0.578413 -2.37352,1.111755 -3.54967,1.689563 -1.29731,0.637334 -2.67003,1.354305 -3.9553,2.018159 -5.49213,3.023783 -9.39048,5.141961 -15.69628,9.290887 -0.6746,0.443854 -1.06872,1.2132 -1.55191,1.860209 -0.924,1.237269 -2.14477,3.212797 -2.84004,4.581309 -0.4289,0.844219 -0.77722,1.727014 -1.16584,2.590521 -0.5857,1.56893 -1.37519,3.478011 -1.70115,5.140181 -0.31086,1.585191 -0.36342,3.677306 -0.28909,5.285844 0.10291,2.227083 0.29001,2.825146 0.69299,4.995908 1.11703,4.08262 2.61963,8.04222 4.11929,11.99539 0.0503,0.13773 0.61892,1.70018 0.7177,1.9555 0.0809,0.20908 0.0567,0.51823 0.25534,0.62217 0.53285,0.27885 1.21539,0.69898 1.75258,0.42858 11.80584,-5.94263 10.74633,-5.23173 16.32182,-10.42525 4.84925,-4.79417 9.62893,-9.656574 14.25615,-14.665716 1.2021,-1.339374 2.4057,-2.692385 3.45643,-4.157196 0.23896,-0.333137 1.01766,-1.490869 1.15692,-1.943059 0.11607,-0.376928 0.10817,-0.781338 0.16226,-1.172007 0.13062,-2.591688 -0.73916,-4.610737 -1.96683,-6.82317 -0.46513,-0.740633 -0.91857,-1.490537 -1.42983,-2.200983 -0.13172,-0.183039 -0.24986,-0.378941 -0.40828,-0.539428 -0.39986,-0.40507 -1.42051,-1.169601 -1.83321,-1.489686 -2.26578,-1.675949 -4.51426,-3.374544 -6.75633,-5.082243 -5.48324,-4.358577 -2.97626,-1.796217 -15.26629,6.250254 -0.30362,0.198788 0.0454,0.724407 0.0713,1.086393 0.0349,0.48853 0.0741,0.976749 0.11114,1.465124 0.1206,3.565019 0.12269,7.133597 0.0537,10.69967 0.16935,3.471135 -0.0843,6.939454 -0.47654,10.386149 -0.24617,2.146078 -0.46178,4.295628 -0.69398,6.443448 -0.14376,0.82513 0.13446,1.59393 0.40527,2.36104 0.65648,1.85963 -0.008,-0.11782 0.65236,1.88138 0.55211,1.4692 0.79576,3.02026 1.17798,4.53476 0.20147,0.69868 0.55629,1.4418 1.24648,1.78662 0.11999,0.06 0.26203,0.0575 0.39304,0.0863 3.46784,-2.02049 10.24503,-3.97199 13.54025,-8.05207 0.42026,-0.52036 0.82393,-0.99344 1.34468,-1.4168 4.7626,-2.17101 0.23973,-0.12851 -11.68602,6.87586 -0.26173,0.15372 0.52993,-0.2977 0.80634,-0.42311 0.40258,-0.18266 0.81256,-0.3499 1.22835,-0.50005 0.96373,-0.34802 1.88229,-0.58381 2.86874,-0.85884 2.58342,-0.7236 5.21016,-1.29548 7.70291,-2.30188 5.36681,-2.4583 1.25351,-0.54677 14.10789,-8.07059 0.38573,-0.22578 0.94261,-0.695458 1.14313,-1.114826 0.0595,-0.124415 0.0633,-0.268447 0.095,-0.40267 -0.2171,-0.359973 -0.33667,-0.80113 -0.6513,-1.079921 -0.5514,-0.4886 -1.53914,-0.471406 -2.19219,-0.554697 -1.31303,-0.167467 -2.62263,-0.374856 -3.93193,-0.568908 -1.00472,-0.148544 -2.00942,-0.310455 -3.02459,-0.369594 -0.068,-0.004 -1.18432,-0.05607 -1.32177,0.02202 -4.47222,2.540948 -8.85939,5.228776 -13.28909,7.843156 -0.34241,1.07475 -0.38058,2.20718 -0.41286,3.3252 -1.17577,5.04209 -13.41061,9.26465 13.15144,-6.90906 0.17478,-0.10642 -0.17612,-0.3722 -0.22681,-0.57045 -0.2409,-0.942197 -0.21727,-1.531138 -0.27679,-2.538353 -6.1e-4,-0.647719 -0.0228,-1.295778 -0.002,-1.943156 0.0492,-1.517667 0.19611,-2.781141 0.33656,-4.290976 0.17342,-1.864246 0.35464,-3.7263 0.55448,-5.587906 0.20824,-1.820493 0.35249,-3.647914 0.48618,-5.475226 0.17044,-1.318323 -0.29461,-1.965006 -1.04862,-3.018665 -1.0184,-1.286228 -2.02549,-2.583279 -3.12319,-3.803453 -1.41035,-1.166815 -3.02497,-2.050661 -4.53977,-3.071957 -0.95166,-0.594682 -1.77163,-1.391398 -2.74018,-1.959556 -0.3078,-0.180553 -0.6266,-0.341653 -0.93989,-0.512479 -2.60535,-1.401242 -4.91377,-3.234863 -7.15153,-5.150268 -1.05055,-0.85245 -1.92669,-1.921959 -3.05272,-2.680087 -0.6213,-0.376962 -1.2849,-0.64516 -2.00026,-0.762599 -0.16806,0.01664 -0.33904,0.0146 -0.50419,0.04993 -0.17825,0.03813 -0.36199,0.07834 -0.52003,0.169176 -8.93745,5.13708 -10.20442,4.817343 -14.79193,9.117541 -0.12712,0.154663 -0.26033,0.304513 -0.38136,0.463988 -0.88937,1.171917 0.23157,-0.25828 -0.54651,0.859728 -0.48992,0.703971 -1.11147,1.311487 -1.7159,1.91277 -1.78828,1.777481 -3.80503,3.297118 -5.80444,4.824507 -0.7784,0.639242 -1.79217,1.162015 -2.1339,2.166897 -0.0826,0.416393 -0.003,0.836632 0.0354,1.253106 0.0206,0.244651 0.0195,0.490355 0.0208,0.735656 0.0125,0.44714 0.0948,0.927388 -0.023,1.363913 -0.30058,0.481778 -0.22569,1.106276 -0.14102,1.639262 0.16059,0.73821 0.53775,1.211956 1.1943,1.56581 0.48772,0.207275 1.01119,0.314093 1.52791,0.422394 5.40459,0.468409 0.44078,0.100369 13.62248,-7.555815 0.39049,-0.226807 0.69433,-1.696198 0.81145,-2.090507 0.50398,-1.682718 1.14068,-3.318132 1.8489,-4.924091 0.40872,-0.891704 0.64138,-1.873054 1.39193,-2.546659 0.0995,-0.05863 0.18687,-0.146255 0.29848,-0.175892 0.14859,-0.03945 0.59256,-0.104328 0.4605,-0.02563 -4.08692,2.435388 -8.26028,4.722964 -12.36878,7.121757 -0.21604,0.126138 0.45216,-0.21606 0.68732,-0.301416 0.79108,-0.287137 0.99896,-0.292435 1.82569,-0.450426 1.19005,-0.210697 2.39803,-0.218198 3.60058,-0.273721 0.75808,-0.181894 1.29896,0.448119 1.75654,0.964858 0.53139,0.718245 0.87578,1.556975 1.24469,2.365805 0.84132,1.809768 1.13461,3.793692 1.28679,5.765162 0.077,0.954253 0.0216,1.909096 0.001,2.863619 0.0897,1.302525 0.1185,2.603555 0.10057,3.909031 0.0642,0.609667 -0.12065,1.237899 -0.0709,1.845935 0.019,0.232008 0.0806,0.458565 0.12435,0.687194 0.28618,1.494141 0.0352,0.06284 0.29515,1.597192 0.22975,1.382429 0.29835,2.782237 0.29361,4.181397 -9.8e-4,0.488237 -0.0389,0.97509 -0.06,1.46256 0.0274,0.37333 -0.17912,0.10871 -0.31114,0.23016 -0.0625,0.0575 -0.0687,0.15562 -0.11028,0.22971 -0.0742,0.13232 -0.1576,0.25922 -0.23641,0.38884 -0.87771,1.25965 -1.94613,2.36684 -2.95959,3.51407 -0.66704,0.75508 -1.31958,1.52288 -1.98638,2.27818 -1.00292,1.04667 -1.94768,2.2996 -3.2478,3.01254 -0.24493,0.13431 -1.01572,0.46039 -0.77513,0.31847 4.0081,-2.36432 8.05638,-4.65983 12.08457,-6.98975 -0.97833,0.51488 -1.96191,0.64197 -3.01827,0.35236 -0.61355,-0.18463 -1.08723,-0.59734 -1.56289,-1.00556 -0.70894,-0.68215 -1.64315,-0.86352 -2.53749,-1.16827 -0.58355,-0.25762 -1.28609,-0.47916 -1.70108,-0.99556 -0.19504,-0.493572 -0.17565,-1.033073 -0.16523,-1.554343 -0.0462,-0.145388 0.0594,-0.306644 0.0199,-0.452304 -0.16414,-0.605697 -0.58601,-1.179045 -0.92289,-1.698803 -0.63222,-0.764499 -1.23255,-1.554094 -1.8358,-2.341402 -0.39971,-0.47632 -0.79425,-0.937923 -1.06296,-1.501168 -0.2249,-0.567622 0.48058,0.268899 0.485,0.270443 0.0554,0.01936 0.37578,-0.313229 0.50591,-0.440124 0.92465,-0.877325 1.9743,-1.617481 3.02157,-2.340733 0.46261,-0.36275 1.42699,-0.98636 1.60789,-1.58467 0.0279,-0.09222 0.0177,-0.191873 0.0265,-0.28781 -0.1108,-0.472641 -0.35657,-0.905066 -0.68425,-1.262115 -7e-4,-7.6e-4 -0.18537,-0.233934 -0.28869,-0.171001 -0.0376,0.02293 -0.0586,0.0658 -0.0879,0.09871 -0.20793,-0.07464 -0.34428,-0.257803 -0.53044,-0.364385 -0.73458,-0.420563 -1.49538,-0.742066 -2.26914,-1.085335 -1.61889,-0.718204 -1.45037,-0.636702 -3.1599,-1.353249 -2.23933,-0.996668 -4.47594,-1.997018 -6.7391,-2.938807 -0.3956,-0.118913 -1.29505,-0.665688 -1.6939,-0.435506 -13.28176,7.665088 -11.98031,2.867054 -13.31837,8.308313 -0.34593,1.05843 0.14999,2.050488 0.6421,2.971952 0.8148,1.066495 1.54995,2.11703 2.19413,3.298881 1.10019,2.179128 1.98391,4.454576 3.10645,6.622826 0.6042,1.12161 1.28623,2.34178 2.4437,2.98318 0.21095,0.11689 0.44186,0.19342 0.66279,0.29013 1.62663,0.41844 3.33112,0.36725 4.99977,0.40904 6.29891,0.2256 5.94932,-1.75214 15.14395,-7.669885 0.22504,-0.14484 -0.0533,-0.532586 -0.08,-0.798879 0.0881,-2.07865 -0.57734,-4.07375 -1.11347,-6.055558 -0.78285,-2.449344 -1.72244,-4.848228 -2.43356,-7.32004 -0.2903,-1.008094 -0.39985,-2.047782 -0.37225,-3.093061 -0.0887,-0.183301 0.0127,-0.415218 -0.0652,-0.601129 -0.12323,-0.294309 -0.70846,-1.224471 -0.84629,-1.443648 -0.66044,-1.050218 -0.55603,-0.871339 -1.31619,-1.964474 -1.31212,-1.858877 -2.42039,-3.859071 -3.8447,-5.636159 -0.2083,-0.239571 -0.4047,-0.490025 -0.62489,-0.718711 -0.30089,-0.312511 -0.6246,-0.602232 -0.9369,-0.903348 -0.35897,-0.363189 -0.72337,-0.721096 -1.07692,-1.089568 -1.21005,-1.261119 -2.36155,-2.567112 -3.48723,-3.903254 -0.89102,-1.110575 -1.80845,-2.200716 -2.68822,-3.320368 -0.19729,-0.251087 -0.39885,-0.499476 -0.57994,-0.762482 -0.10362,-0.150482 -0.30561,-0.295877 -0.27253,-0.475562 0.0238,-0.129293 0.21123,0.156576 0.31684,0.234864 -4.21897,2.647691 -8.61087,5.037982 -12.6569,7.943073 -0.2712,0.194722 0.57107,0.346915 0.84471,0.538186 0.34216,0.239159 0.66911,0.499371 1.00132,0.752158 1.49104,1.134566 2.88326,2.34281 4.27098,3.601235 2.77348,2.456411 5.14791,5.314435 7.38174,8.258318 0.62056,0.817814 1.24474,1.63349 1.8356,2.473012 0.57516,0.817206 1.10754,1.663696 1.6613,2.495544 1.84278,3.054826 0.97579,1.556435 2.61032,4.489742 0,0 12.13234,-7.037292 12.13234,-7.037292 v 0 c -1.86332,-2.852207 -0.8946,-1.386037 -2.90914,-4.396539 -0.40363,-0.588521 -3.09642,-4.523263 -3.49581,-5.070949 -2.20261,-3.020514 -4.6734,-5.836646 -7.09195,-8.682328 -1.30926,-1.309396 -2.61264,-2.629715 -3.94274,-3.917919 -0.2927,-0.283478 -0.60591,-0.545314 -0.89739,-0.830045 -0.2401,-0.234542 -0.39134,-0.866568 -0.69662,-0.727071 -4.67146,2.134577 -9.06166,4.837563 -13.59249,7.256345 0.46072,0.532539 1.01052,0.949075 1.50852,1.452167 1.0087,1.01901 1.96648,2.087693 2.926,3.152461 1.94344,2.240318 3.81249,4.544302 5.7091,6.822876 1.41456,1.714058 2.7894,3.462493 3.91455,5.386028 0.47578,0.847358 1.06396,1.729831 1.32993,2.678297 0.0817,0.291236 0.0346,0.628248 0.10036,0.924786 0.16909,1.125149 0.40506,2.249641 0.82952,3.308619 0.95079,2.322056 2.04084,4.602328 2.6214,7.056441 0.26975,1.246046 0.50539,2.442877 0.54036,3.720517 0.0137,0.50047 0.0149,0.89302 -0.10002,1.37911 -0.038,0.16101 -0.11102,0.31171 -0.16654,0.46756 -5.22482,0.7921 -0.56942,0.12963 12.49184,-7.283916 0.0925,-0.05251 -0.16158,0.141069 -0.25511,0.191742 -0.46609,0.252503 -1.01642,0.278386 -1.52997,0.327139 -1.55912,0.04142 -3.12145,0.05821 -4.67676,-0.08148 -0.32683,-0.04512 -0.60293,-0.05494 -0.90475,-0.200719 -0.81583,-0.394056 -1.32454,-1.253906 -1.80613,-1.971115 -1.2205,-2.092143 -2.19698,-4.317686 -3.04069,-6.586553 -0.55069,-1.228819 -1.11423,-2.437214 -1.95599,-3.498483 -0.38325,-0.69653 -0.44883,-0.93183 0.12959,-1.51709 4.77908,-1.986869 1.55935,-0.663083 -12.40343,7.263872 -0.1012,0.05745 0.13742,-0.188446 0.19507,-0.289539 0.0576,-0.100987 0.0597,-0.241373 0.14964,-0.315012 0.14688,-0.120241 0.70809,-0.02408 0.79778,-0.01602 2.46536,0.512903 4.82889,1.455917 7.13153,2.454512 1.53255,0.73607 3.21965,1.397845 4.5555,2.47843 0.0236,0.01905 0.5205,0.516627 0.55685,0.552946 0.89412,1.075882 0.19399,-0.215548 -0.0284,-0.574812 -0.037,-0.0069 -0.0748,-0.03087 -0.11109,-0.0208 -0.0853,0.02367 -0.36114,0.257616 -0.38902,0.279389 -0.383,0.299117 -0.78538,0.569438 -1.17158,0.864417 -1.04281,0.802229 -2.07155,1.620432 -3.06355,2.484951 -0.0688,0.0526 -0.62949,0.465885 -0.64514,0.530514 -0.10039,0.414422 0.27746,1.133697 0.44594,1.519327 0.35178,0.63268 0.80375,1.19115 1.30705,1.71059 0.61605,0.71467 1.1759,1.47245 1.73991,2.22837 0.16682,0.24462 0.40622,0.53076 0.44735,0.83746 0.0111,0.0827 -0.0797,0.53861 -0.001,0.62792 0.0773,0.78508 0.2412,1.56203 0.60894,2.26748 0.0992,0.15371 0.18231,0.31918 0.29774,0.46114 0.46902,0.57684 1.32473,0.93218 1.96273,1.2701 0.12218,0.0515 0.83066,0.353 0.96323,0.39786 0.4058,0.13733 0.85603,0.12479 1.22097,0.37706 0.60143,0.51925 1.16374,1.10055 1.89944,1.43538 0.92486,0.40589 2.10213,0.75149 3.12185,0.63892 0.24615,-0.0272 0.47987,-0.12268 0.71981,-0.18402 4.75934,-2.67694 10.07208,-4.58477 14.21483,-8.14215 1.07036,-0.91911 1.90323,-2.07662 2.84617,-3.11617 1.78623,-2.057111 3.70832,-4.010156 5.32114,-6.208948 0.1118,-0.173626 0.22421,-0.346865 0.33542,-0.520876 0.0519,-0.08121 0.12342,-0.153348 0.15389,-0.244786 0.10157,-0.304827 -0.0201,-0.631089 -0.008,-0.939361 -0.0195,-0.489857 -0.0774,-0.976801 -0.13413,-1.463508 -0.16871,-1.405053 -0.35039,-2.808588 -0.52723,-4.212557 -0.16967,-1.311064 -0.192,-2.621905 -0.22342,-3.942814 -0.0134,-1.349582 0.0305,-2.693922 0.11903,-4.040391 -0.0373,-0.964127 -0.21401,-1.916493 -0.36409,-2.867771 -0.35227,-2.072111 -0.7276,-4.139597 -1.3732,-6.145324 -0.34282,-1.020194 -0.66381,-2.063238 -1.41078,-2.87045 -0.68619,-0.786917 -1.39496,-1.671159 -2.39445,-2.052668 -1.33362,-0.09022 -2.67185,0.185181 -4.00049,0.260623 -0.6237,0.06773 -1.25063,0.108897 -1.87176,0.197206 -5.65514,0.804016 -11.77082,3.707399 -14.80998,8.574677 -0.40491,0.904722 -0.70431,1.851327 -1.06056,2.775769 -0.60239,1.636528 -1.13805,3.301101 -1.86255,4.889496 -0.33378,0.562947 -0.53385,0.929614 -1.13289,1.206088 -0.0951,0.04387 -0.38345,0.166092 -0.29265,0.113984 12.96544,-7.440835 15.17856,-11.667545 12.73628,-7.105198 -0.31877,0.329937 -0.65452,0.230981 -1.07944,0.220285 -0.0849,0.003 -0.20174,-0.04357 -0.25374,0.0236 -0.0286,0.0369 0.0176,0.168676 -0.0183,0.138812 -0.0129,-0.01077 -0.0124,-0.03167 -0.0144,-0.04838 -0.005,-0.04227 -0.005,-0.08504 -0.007,-0.127557 0.0492,-0.484781 0.29967,-0.94482 0.2582,-1.442628 -0.0188,-0.506851 -0.0252,-1.016008 0.008,-1.522316 -0.007,-0.252288 -0.0222,-0.504236 -0.0256,-0.756568 0.0136,-0.229751 0.0917,-0.32088 0.31127,-0.399654 0.7102,-0.435542 1.28425,-1.067194 1.9555,-1.555652 1.9379,-1.590717 3.86989,-3.192623 5.64059,-4.971937 0.64333,-0.691426 0.90621,-0.951777 1.48999,-1.658574 0.45893,-0.555634 0.86672,-1.149093 1.45946,-1.578391 0.32325,-0.270202 0.6144,-0.523512 0.95772,-0.769521 0.17732,-0.127063 0.73428,-0.470758 0.54496,-0.362369 -19.90995,11.399129 -15.59889,9.923571 -11.71974,6.583925 0.0714,-0.06483 0.13417,-0.140594 0.21412,-0.194496 0.33505,-0.225894 0.89078,0.0284 1.2168,0.149012 1.26287,0.436615 2.27077,1.384847 3.34525,2.141965 2.35147,1.798816 4.68442,3.621876 7.08154,5.359666 1.15102,0.930683 2.38852,1.744944 3.65551,2.510308 1.44979,0.89382 2.86466,1.842772 4.21006,2.888764 1.13141,1.045586 2.1932,2.187337 3.03747,3.480059 0.21118,0.401185 0.35941,0.602102 0.45359,1.025323 0.0939,0.421889 -0.0427,0.878542 0.0436,1.302858 0.0744,1.710768 0.0581,3.422258 0.0151,5.133855 -0.13188,3.989497 -0.49825,7.96359 -0.83776,11.93972 -0.0233,1.24208 -0.077,1.85381 0.0444,3.04802 0.0316,0.31063 -0.13192,1.046 0.15537,0.92373 14.10814,-6.00462 13.67967,-1.79274 13.57215,-7.39893 0.0151,-0.63754 0.023,-1.465503 0.49859,-1.960559 0.0978,-0.10179 0.2309,-0.162405 0.34635,-0.243607 -4.17609,2.377876 -8.34252,4.772816 -12.52829,7.133626 -0.1669,0.0941 0.29639,-0.24931 0.46917,-0.33216 0.21208,-0.1017 0.44018,-0.17552 0.67203,-0.21507 1.02283,-0.1745 2.09151,0.0275 3.11065,0.0891 1.13689,0.1372 1.47819,0.16198 2.60911,0.36466 0.39881,0.0715 0.7954,0.15513 1.1915,0.24035 0.32524,0.07 0.63983,0.21358 0.97232,0.2252 0.13105,0.005 0.34261,-0.0481 0.35035,-0.17896 0.0156,-0.26454 -0.19744,-0.49185 -0.29615,-0.73778 -0.31148,0.0778 -0.55833,0.31156 -0.82821,0.48114 -0.15341,0.0964 -0.6217,0.37238 -0.46451,0.28228 11.91587,-6.830484 16.24192,-9.450719 11.4511,-6.55718 -0.73834,0.390087 -1.22041,0.66724 -2.00938,0.98427 -1.85469,0.74528 -3.83041,1.1472 -5.74617,1.69482 -1.31872,0.32304 -2.65368,0.61903 -3.96142,0.98455 -5.47974,1.53159 -10.70694,4.55947 -14.78702,8.52363 -0.42777,0.48171 -0.84536,0.97005 -1.37706,1.3426 -0.11515,0.0807 -0.48183,0.28992 -0.36,0.21976 4.24862,-2.44656 8.49363,-4.89937 12.74045,-7.34905 -0.0176,0.10132 -0.0544,0.20114 -0.0529,0.30397 0.003,0.207 0.15263,0.41792 0.0884,0.61473 -0.0587,0.17987 -0.34868,-0.68295 -0.33422,-0.53623 -0.52314,-1.44748 -0.94485,-2.93223 -1.43644,-4.39067 -0.34836,-1.2832 -0.68939,-2.567095 -0.6073,-3.907837 -0.0412,-2.046456 0.0561,-4.088807 0.21017,-6.129505 0.23447,-3.511824 0.51057,-7.02196 0.46919,-10.545217 -0.14272,-3.539237 -0.25815,-7.094751 0.0304,-10.629279 0.0943,-0.476093 0.12343,-0.969849 0.28277,-1.428278 0.0732,-0.210634 0.59844,-0.638046 0.40007,-0.536181 -4.33202,2.224541 -8.56884,4.629799 -12.85902,6.933996 -0.11903,0.06393 0.21227,-0.238419 0.34494,-0.212854 0.55988,0.107893 0.87865,0.834033 1.44897,0.909119 2.34727,1.505141 4.66991,3.05271 6.7367,4.93803 1.24973,1.151752 2.40305,2.409501 3.31851,3.849203 1.11213,1.820073 1.89836,3.622898 1.44157,5.799611 -0.11964,0.285776 -0.2222,0.579324 -0.35893,0.857328 -0.24091,0.489811 -0.73532,1.234651 -1.03181,1.662949 -0.91491,1.321682 -1.92664,2.572511 -2.95398,3.807502 -4.35072,5.099503 -8.99341,9.966133 -14.04763,14.375913 -6.55268,5.19625 -0.19182,-0.0764 8.00945,-3.79659 0.37427,-0.16977 -0.063,0.88927 -0.35184,1.18166 -0.13826,0.13999 -0.23186,-0.31835 -0.33596,-0.4853 -0.34889,-0.5595 -0.67015,-1.19391 -0.97676,-1.77085 -1.84988,-3.65641 -3.52001,-7.438215 -4.41491,-11.454491 -0.36505,-1.992444 -0.56756,-2.679183 -0.62948,-4.723428 -0.10379,-3.426841 0.71905,-6.70596 2.1228,-9.818248 0.42204,-0.830158 0.80579,-1.680923 1.26612,-2.490475 0.81642,-1.43577 1.97024,-3.140724 3.10003,-4.356658 0.563,-0.605925 2.57412,-2.037695 1.83086,-1.674807 -2.55202,1.246009 -15.37228,8.76869 -8.587,4.794584 1.85145,-0.975552 3.69925,-1.945434 5.59789,-2.826985 0.54005,-0.250747 1.08159,-0.498458 1.62699,-0.737339 0.47199,-0.206731 0.97538,-0.34752 1.42492,-0.599372 4.60729,-2.581208 9.15748,-5.263046 13.73621,-7.894569 0.32299,-0.254595 0.71928,-0.436985 0.96896,-0.763784 1.02091,-1.336226 -2.3e-4,-2.302374 -0.89428,-3.204996 -1.78301,-1.624118 -3.82366,-2.943841 -5.63635,-4.535971 -0.88918,-0.696268 -0.90779,-0.698373 -1.74289,-1.398301 -0.24139,-0.202319 -0.46158,-0.431471 -0.71854,-0.613608 -0.70294,-0.498251 -1.54156,-0.666708 -2.38318,-0.729747 -4.72989,0.0115 -9.36854,1.04532 -13.94921,2.136427 -1.34289,0.33855 -2.69261,0.651052 -4.02866,1.015651 -2.42579,0.66198 -6.40244,1.89114 -8.77207,2.657679 -1.41579,0.457988 -2.83603,0.904911 -4.23375,1.415415 -7.10289,2.594264 -10.05702,5.014263 -18.44157,9.643284 -1.81218,1.103266 -2.95717,1.557417 -4.28684,3.160002 -0.64681,0.779556 -0.77346,2.250793 -0.85516,3.233241 -0.12276,0.909461 -0.2542,1.856054 -0.95334,2.518857 -4.99378,1.713336 -0.95958,0.353608 12.4774,-7.093785 0.0932,-0.05163 -0.13739,0.166448 -0.2253,0.2266 -0.0987,0.06756 -0.47205,0.203571 -0.59693,0.205762 -0.10938,0.0019 -0.21446,-0.04335 -0.32169,-0.06502 -0.21989,-0.08479 -0.3677,-0.118068 -0.54705,-0.279258 -0.53874,-0.484214 -0.81047,-1.222641 -1.207,-1.809071 -0.59577,-1.141557 -1.30849,-2.262867 -1.56533,-3.540903 -0.006,-0.155452 -0.036,-0.311655 -0.0194,-0.466356 0.0555,-0.518273 0.42987,-0.927121 0.80724,-1.245197 3.76816,-2.861257 15.93202,-8.989072 -11.97154,6.869593 -0.11744,0.06675 0.19882,-0.184644 0.28179,-0.291242 0.068,-0.08732 0.0836,-0.214688 0.16784,-0.286405 0.0608,-0.05174 0.15542,-0.03657 0.23313,-0.05485 0.96639,0.0047 1.93227,0.05104 2.89598,0.121834 0.96201,0.08419 1.92501,0.07882 2.88983,0.08947 1.55216,0.124639 3.07237,0.468912 4.55352,0.947692 1.76513,0.598972 3.51941,1.229439 5.3212,1.707356 1.53554,0.546191 3.14139,1.05361 4.48623,1.995803 0.0879,0.06272 0.19695,0.273042 0.26373,0.188174 0.0755,-0.09593 -0.25011,-0.267445 -0.14832,-0.334834 4.19786,-2.779268 8.48344,-5.425534 12.78929,-8.034358 0.091,-0.05513 0.0237,0.237766 -0.0491,0.315353 -0.11808,0.125864 -0.82803,0.145911 -0.88765,0.150845 -2.48448,0.228608 -4.96183,0.533628 -7.44064,0.815088 -3.0689,0.343218 -6.12677,0.702695 -9.21676,0.406019 -6.97682,-0.390231 -0.26704,-1.578829 -15.3215,7.394019 -0.51759,0.585016 -1.01447,1.172998 -1.34105,1.89408 -1.33601,2.491386 -2.69441,4.971487 -4.24232,7.340362 -1.14625,1.790912 -2.32309,3.564868 -3.78228,5.12115 -1.17898,1.43661 -2.30754,2.919591 -3.29813,4.493647 -1.23075,1.95275 -2.55104,3.915701 -3.01992,6.215081 -0.11563,1.31702 -0.0763,2.29817 0.57499,3.47079 0.60309,0.96879 1.43642,1.7215 2.27904,2.48251 1.28878,1.2277 2.55975,2.47644 3.91508,3.63111 0.16541,0.1384 1.22283,1.02855 1.4106,1.16468 0.69867,0.50652 1.50849,0.91457 2.31999,1.19586 2.84066,-1.63896 13.33186,-2.99201 13.42007,-8.58765 0.008,-0.5206 -0.0649,-1.03745 -0.0831,-1.55694 -0.0972,-1.5614 -0.15094,-3.12876 -0.10159,-4.692804 0.0576,-0.597269 -0.0335,-1.197125 -0.0648,-1.794281 -0.13207,-1.747914 -0.24171,-3.498205 -0.27523,-5.251152 -0.0277,-0.847548 -0.058,-1.504824 -0.0502,-2.353146 0.0106,-1.154345 0.0718,-2.309731 -0.0847,-3.459616 -0.30175,-2.453241 -0.68199,-4.89849 -1.3248,-7.288836 -0.12339,-0.522218 -0.24678,-1.044437 -0.37017,-1.566655 -0.12465,-0.502209 -0.25489,-1.003065 -0.37395,-1.506629 -0.34627,-1.464513 -0.76298,-2.974639 -0.502,-4.488076 0.25186,-1.173312 0.55065,-2.288577 0.32619,-3.505599 -0.13485,-1.036907 -0.27548,-2.070001 -0.2104,-3.118426 -0.0905,-0.848447 -0.46414,-1.567186 -1.15361,-2.097956 -14.00734,8.264184 -10.63022,3.311911 -13.25004,7.953479 -0.026,0.04616 -0.21309,0.383219 -0.2511,0.42281 -0.0532,0.0554 -0.26162,0.131893 -0.32678,0.158511 -0.0946,0.0545 -0.40733,0.15183 -0.31287,0.09706 21.8571,-12.673903 16.50776,-9.181703 11.78696,-6.8066 -0.84952,0.413676 -1.73055,0.823803 -2.68467,0.900216 -0.69286,-0.009 -1.39573,-0.07621 -2.04895,0.20516 -1.38516,0.546659 0.67226,-0.284263 -0.6506,0.31204 -0.10119,0.04561 -0.21938,0.05021 -0.31615,0.104593 -6.39113,3.5915 -13.77746,2.702703 -13.34345,8.335855 0.008,0.46822 -0.0193,0.936902 -0.10351,1.398341 -0.27479,1.534918 -0.76811,3.021882 -1.34779,4.466946 -0.61703,1.438995 -1.24292,2.851585 -2.0533,4.195808 -0.31025,0.514619 -1.03714,1.63782 -1.50701,2.079261 -0.20903,0.19638 -0.48346,0.308703 -0.72519,0.463054 4.40925,-2.14116 8.83637,-4.245897 13.22774,-6.423481 0.0412,-0.02044 -0.0821,-0.04548 -0.1124,-0.08012 -0.0543,-0.06218 -0.0973,-0.133943 -0.13763,-0.205978 -0.18333,-0.327172 -0.28316,-0.689275 -0.36532,-1.052672 -0.17484,-0.553255 -0.35754,-1.093677 -0.73424,-1.551604 -3.37841,-4.106834 -23.04389,4.88599 -14.07946,7.204286 -0.45168,1.59955 -0.75095,3.228717 -0.91443,4.884648 -0.27727,2.860363 -0.39163,5.726103 -0.48415,8.59724 -0.0805,1.464633 0.023,2.929433 -0.001,4.396043 -0.0315,0.69607 -0.003,1.48278 -0.22001,2.15597 -0.049,0.15225 -0.11441,0.30686 -0.22155,0.42561 -0.0705,0.0782 -0.37619,0.18869 -0.28511,0.13589 4.23169,-2.45332 8.47187,-4.89198 12.7078,-7.337969 -0.0839,0.105948 -0.13782,0.245149 -0.25176,0.317843 -0.24642,0.157215 -0.84216,0.176114 -1.08631,0.185312 -0.89666,0.03378 -1.7962,-0.01776 -2.69204,-0.04348 -1.33351,-0.08705 -2.88762,-0.07575 -4.11553,-0.642702 -0.8127,-0.04881 -1.51988,-0.569772 -2.3062,-0.739039 -1.83298,-0.556261 -3.63826,-1.207889 -5.49705,-1.677295 -1.7705,-0.461703 -3.53578,-0.96574 -5.37426,-1.065827 -1.05905,-0.142875 -2.10346,-0.318045 -3.13653,-0.596794 -0.16878,-0.04554 -0.3528,-0.243864 -0.50179,-0.152431 -4.39895,2.699527 -8.65825,5.620269 -12.98737,8.430402 0.11772,0.16199 0.24452,0.45243 0.50442,0.41984 0.0848,-0.0106 0.0683,-0.0771 0.16148,-0.0318 0.0343,0.0167 0.0574,0.0503 0.0861,0.0754 0.27467,0.50881 0.61792,1.2955 0.71404,1.8559 0.0131,0.0765 -0.0112,0.15492 -0.0168,0.23238 0.0802,0.58854 0.34994,1.13627 0.8185,1.51525 0.29332,0.13121 0.61901,0.0537 0.93506,0.0487 0.31793,-0.0221 0.63206,-0.0582 0.94277,-0.13162 0.56241,-0.0299 1.15645,0.74514 1.64434,0.95854 1.26049,0.78727 2.61528,1.41615 3.98944,1.9776 2.41981,0.98813 4.86958,1.90256 7.25686,2.97055 0.35963,0.15465 0.72131,0.3046 1.07889,0.46394 0.31051,0.13837 0.60255,0.322 0.92519,0.42911 0.22195,0.0737 0.46053,0.0845 0.69319,0.10819 0.73213,0.0745 1.45467,0.0627 2.14069,-0.23404 7.33744,-4.23173 11.91881,-5.72714 16.94244,-10.88536 0.9391,-0.9413 1.87324,-1.88205 2.65738,-2.961621 0.91125,-1.178161 1.81631,-2.362262 2.674,-3.580137 0.43226,-0.746037 0.81617,-1.520207 1.21616,-2.284111 0.97222,-1.959032 1.90105,-3.955942 2.55998,-6.044256 0.19624,-0.734398 0.35716,-1.196533 0.42006,-1.94943 0.056,-0.670628 -0.11021,-1.378459 -0.31652,-2.008386 -0.47159,-0.889314 -1.22095,-1.540477 -1.96688,-2.201334 -1.43208,-1.299038 -2.8182,-2.647854 -4.16897,-4.031275 -1.20071,-1.136773 -2.45408,-2.212977 -3.67768,-3.324618 -1.98739,-1.931957 -3.85527,-3.977709 -5.1595,-6.44973 -0.73902,-1.343369 -1.33792,-2.786317 -2.39916,-3.920994 -0.55071,-0.607377 -1.14274,-1.191513 -1.86118,-1.599407 -0.32619,-0.162551 -0.58445,-0.307779 -0.93873,-0.412829 -0.84104,-0.249384 -1.75378,-0.259137 -2.6188,-0.33877 -0.69982,0.02006 -1.42707,0.04073 -2.11445,0.193602 -0.63172,0.140492 -0.39164,0.205707 -1.03851,0.297005 -0.19371,0.02734 -0.39086,0.01774 -0.58629,0.02661 -5.93956,0.506908 -4.9158,2.020888 -14.51079,7.950331 -0.31361,0.193798 -0.36307,1.412147 -0.38399,1.740681 0.0179,1.035496 0.15592,2.04692 0.86909,2.84997 0.52975,0.654275 1.14736,1.235355 1.89787,1.630875 15.87951,-9.229982 10.34362,-3.544422 14.5298,-9.748097 0.37123,-0.459858 0.71471,-0.85147 1.23858,-1.142603 0.13154,-0.07311 0.54066,-0.263788 0.40986,-0.189361 -12.91498,7.348566 -15.28483,11.473856 -12.68554,7.036265 0.40163,-0.294951 0.91965,-0.133584 1.38332,-0.09293 0.39465,0.06641 0.19892,0.02365 0.58713,0.128546 0.34468,0.06544 0.70972,0.046 1.039,0.190464 0.50556,0.05378 0.97892,0.267014 1.49115,0.246992 1.12933,0.07908 2.22639,0.363161 3.30563,0.696001 1.21827,0.394667 2.43476,0.827282 3.68971,1.087109 1.54593,0.377996 3.02075,0.998967 4.47121,1.644897 1.49619,0.712461 3.18595,1.456523 4.24069,2.797663 0.0894,0.11365 0.14132,0.252291 0.21197,0.378436 -0.025,0.01635 -0.0512,0.06715 -0.0749,0.04907 -0.12201,-0.09288 -0.44138,-0.264307 -0.30865,-0.341069 4.2559,-2.461278 8.65795,-4.660701 12.98692,-6.991052 -0.15313,0.02107 -0.30482,0.06416 -0.45938,0.0632 -0.15925,-9.89e-4 -1.42291,-0.164904 -1.49621,-0.174089 -2.58786,-0.373628 -5.16769,-0.86994 -7.79078,-0.915879 -1.28982,-0.04547 -2.59194,-0.126658 -3.87723,-0.029 -1.24173,0.173156 -2.48621,0.244059 -3.74138,0.204697 -0.55682,5.19e-4 -1.05796,0.0068 -1.61341,-0.01477 -0.51964,-0.02014 -1.05313,-0.122096 -1.56703,8.5e-4 -1.20475,0.19885 -2.4291,0.08514 -3.64156,0.0083 -1.23558,-0.129868 -2.42518,-0.311509 -3.62285,-0.646063 -0.16261,-0.04542 -0.33168,-0.07235 -0.4876,-0.137112 -0.14204,-0.059 -0.26618,-0.154166 -0.39928,-0.231249 -1.2756,-1.20108 -2.23547,-2.682218 -3.24338,-4.104267 -1.23284,-1.718703 -2.47562,-3.45225 -3.47472,-5.318434 -0.46785,-1.39685 -0.74104,-2.848358 -0.54972,-4.326175 0.0912,-0.434239 0.1694,-0.95482 0.36317,-1.366457 0.0703,-0.149225 0.4182,-0.493162 0.275,-0.411344 -4.27903,2.444715 -11.54717,12.310047 -12.72614,7.524996 -0.5761,-2.338226 16.99259,-11.835779 12.09717,-9.185831 -1.36842,0.03793 -2.71458,-0.422361 -4.02208,-0.761907 -1.59259,-0.540376 -3.18736,-1.100915 -4.70697,-1.824921 0,0 -12.54389,8.515982 -12.54389,8.515982 z"
     id="path33"
     style="fill:#ff2000;fill-opacity:1" />
  <path
     inkscape:connector-curvature="0"
     d="m 218.7506,63.009143 c 0.0509,0.332014 0.12195,0.661561 0.15271,0.996043 0.0849,0.923542 0.084,2.23873 0.0934,3.143937 0.0187,1.813774 -0.0138,3.619699 -0.0698,5.432508 0.004,2.142977 0.18277,4.279565 0.31876,6.41671 0.009,0.896895 0.0484,1.221301 0.6526,1.914785 3.93253,3.757389 0.53815,0.660905 13.50203,-7.5172 0.15866,-0.100084 -0.0788,-0.366971 -0.10848,-0.552189 -0.15696,-0.979417 -0.16283,-1.935856 -0.14804,-2.925295 0.0693,-0.661686 0.10476,-1.637728 0.42656,-2.256072 0.1561,-0.299953 0.44022,-0.513388 0.66033,-0.770082 -3.66389,2.257992 -7.4165,4.377965 -10.99165,6.773978 -0.59259,0.397145 1.31091,-0.5823 2.00412,-0.750666 0.80356,-0.195167 1.63885,-0.222104 2.45828,-0.333156 0.91319,0.02584 1.83279,-0.03364 2.73956,0.07752 4.35251,0.533549 8.37821,2.594395 11.93823,5.060901 0.84495,0.585413 1.63774,1.242744 2.45661,1.864116 3.72135,3.0914 7.18952,6.473716 10.93711,9.532218 2.70416,2.219909 5.51689,4.304274 8.3484,6.357995 1.2047,0.83593 2.34836,1.7985 3.63217,2.517875 1.6134,0.904059 3.3661,1.528909 5.09524,2.164161 2.69948,0.91361 5.46735,1.58089 8.23362,2.25055 5.29856,1.60743 1.82746,0.67994 13.65806,-7.593524 0.36416,-0.25467 -1.99996,-2.680538 -2.217,-2.907127 -0.91627,-1.001081 -1.97908,-1.875813 -2.73977,-3.007067 -0.0598,-0.240009 -0.1529,-0.474104 -0.17942,-0.720027 -0.29586,-2.743949 0.97189,-6.149238 1.88541,-8.68563 1.25982,-3.219349 2.86342,-6.289405 4.42959,-9.367124 0.48703,-0.953603 0.95902,-1.914053 1.45893,-2.861024 0,0 -13.64934,6.171474 -13.64934,6.171474 v 0 c -0.43809,0.91277 -0.8057,1.853282 -1.19752,2.786694 -1.31512,3.074996 -2.7542,6.102297 -3.85855,9.262909 -1.00905,2.929316 -2.37078,6.537875 -2.10683,9.690615 0.0368,0.439195 0.17191,0.864538 0.25786,1.296807 0.13126,0.206739 0.24865,0.422976 0.39379,0.620217 0.71775,0.97535 1.78483,1.64251 2.5597,2.568467 0.29648,0.322227 1.08123,1.07733 1.21702,1.50622 0.0357,0.11269 -0.31769,-0.2201 -0.21635,-0.28094 5.92182,-3.554942 17.49836,-9.826681 12.48861,-7.110983 -2.90268,-0.04383 -5.7647,-0.809068 -8.52222,-1.654411 -1.35567,-0.470219 -2.03244,-0.662542 -3.32423,-1.276036 -1.80025,-0.854973 -3.42842,-2.035441 -5.08163,-3.134188 -2.8585,-2.035448 -5.69171,-4.103629 -8.54691,-6.14284 -3.85613,-3.039837 -7.49679,-6.340152 -11.42237,-9.291322 -1.65317,-1.191193 -3.69888,-2.718154 -5.44555,-3.754635 -1.76594,-1.047911 -4.22303,-2.221477 -6.14217,-2.94708 -1.00228,-0.378948 -2.01471,-0.748685 -3.05962,-0.986015 -0.89458,-0.203185 -1.82153,-0.219665 -2.7323,-0.329498 -0.81641,0.0018 -1.6345,-0.0468 -2.44923,0.0055 -0.68257,0.04382 -1.43234,-0.04598 -2.03242,0.282224 -3.42579,1.8737 -12.67396,3.853714 -14.19351,9.51249 -0.16167,0.602035 -0.26806,1.917025 -0.32869,2.51735 -0.0184,0.495477 -0.0527,1.694316 -0.1106,2.205827 -0.0308,0.272493 -0.061,0.548547 -0.14349,0.810082 -0.0282,0.0893 -0.26182,0.261209 -0.17998,0.215696 13.2066,-7.344937 12.35695,-12.390113 13.16413,-7.232976 0.11898,0.842455 -0.0818,-0.547066 -0.14404,-0.601086 -0.42796,-1.953612 -0.7639,-3.933077 -0.77037,-5.939875 -0.0229,-1.807543 -0.0187,-3.604477 0.0613,-5.410976 0.0433,-0.978453 0.099,-2.301521 0.23933,-3.286007 0.0532,-0.373558 0.1524,-0.739116 0.2286,-1.108673 0,0 -13.57992,6.77785 -13.57992,6.77785 z"
     id="path35"
     style="fill:#ff2000;fill-opacity:1" />
  <path
     inkscape:connector-curvature="0"
     d="m 289.18502,63.720987 c 2.16332,2.170441 3.85819,4.73016 5.40809,7.357185 0.93183,1.519069 1.3914,3.221643 1.9094,4.904493 0.54825,1.550243 1.00798,3.126675 1.28226,4.748555 0.0441,0.470562 0.14698,0.931802 0.2159,1.398688 0.0156,0.105718 0.005,0.217762 0.0423,0.317785 0.0705,0.187456 0.64973,1.241772 0.70634,1.346456 0.68484,1.308742 1.45601,2.569846 2.18918,3.851745 0.16444,0.287526 0.3129,0.584687 0.49173,0.863499 0.19794,0.308614 0.42477,0.597715 0.63716,0.896573 1.46864,2.012025 2.95393,4.009967 4.37214,6.058157 0.74822,1.18241 1.56816,2.316201 2.34943,3.475604 0.9905,1.483983 1.78928,3.097403 2.47835,4.741443 0.25397,0.62295 0.44937,1.26591 0.43334,1.94223 -0.004,0.052 -0.0208,0.10454 -0.0126,0.15608 0.0677,0.42505 0.34881,0.85011 0.50354,1.24129 0.18901,0.47783 0.37929,1.06429 0.54227,1.54755 0.38731,1.2232 0.61318,2.48922 0.68967,3.76852 0.0107,0.52002 -0.005,1.04018 -0.006,1.56031 0.0251,0.72288 -0.0179,1.44411 0.0702,2.16295 0.0857,0.8113 0.15993,1.62151 0.25578,2.43185 0,0 13.36943,-7.01663 13.36943,-7.01663 v 0 c -0.0982,-0.78913 -0.15401,-1.58326 -0.177,-2.37819 0.005,-0.70101 0.0112,-1.40222 0.0342,-2.10284 6.2e-4,-0.57561 -0.0148,-1.15084 -0.15926,-1.71202 -0.27898,-1.30468 -0.6401,-2.59034 -1.0196,-3.86897 -0.26628,-0.9426 -0.54273,-1.891429 -0.59863,-2.870464 -0.18167,-0.798919 -0.50223,-1.54513 -0.90551,-2.258614 -0.89275,-1.597319 -1.7538,-3.212114 -2.54366,-4.863305 -0.26962,-0.486914 -0.37995,-0.729559 -0.70265,-1.162254 -0.59563,-0.798662 -1.34438,-1.480908 -1.91301,-2.30239 -1.50898,-1.964106 -3.0002,-3.93677 -4.31729,-6.03797 -1.14394,-1.743893 -2.33626,-3.47346 -3.05715,-5.448363 -0.0806,-0.236985 -0.17588,-0.469474 -0.24179,-0.710955 -0.0417,-0.152625 -0.0476,-0.312973 -0.08,-0.467842 -0.11701,-0.560386 -0.31423,-1.104984 -0.44109,-1.663005 -0.45684,-1.612685 -0.95372,-3.214253 -1.35627,-4.841541 -0.5767,-1.850081 -1.35871,-3.405462 -2.46588,-5.010778 -1.64717,-2.607903 -3.5055,-5.075565 -5.13752,-7.692076 0,0 -12.84636,7.637244 -12.84636,7.637244 z"
     id="path37"
     style="fill:#ff2000;fill-opacity:1" />
  <path
     inkscape:connector-curvature="0"
     d="m 297.19924,90.889842 c 0.99883,1.441446 0.33539,0.455699 1.45709,2.220755 0.38069,0.599037 0.77934,1.186858 1.14685,1.794071 1.23965,2.048192 2.33606,4.184908 3.47784,6.288032 0.96988,1.76259 1.80752,3.59499 2.74234,5.3753 0.75448,1.43684 1.60827,2.82183 2.43853,4.21527 1.51564,2.30823 2.85304,4.72315 4.12187,7.17332 0.42357,0.87402 0.23452,0.45968 0.57388,1.23993 0,0 13.03765,-7.47026 13.03765,-7.47026 v 0 c -0.48136,-0.75713 -0.22279,-0.35714 -0.7781,-1.19841 -1.54289,-2.29196 -2.97436,-4.66008 -4.41479,-7.01678 -1.8802,-3.08022 -3.74758,-6.169867 -5.5435,-9.299724 -1.86972,-3.516453 -3.84203,-7.007311 -5.18645,-10.768624 0,0 -13.07321,7.44712 -13.07321,7.44712 z"
     id="path39"
     style="fill:#ff2000;fill-opacity:1" />
  <path
     inkscape:connector-curvature="0"
     d="m 336.8081,64.134161 c -0.62837,1.866355 0.26728,-0.755968 -0.72834,1.966272 -0.24746,0.676609 -0.46417,1.364275 -0.71555,2.039437 -0.99312,2.667318 -2.1082,5.287111 -3.2242,7.904412 -1.65539,3.97436 -3.58135,7.827961 -5.23702,11.801811 -1.22261,3.048562 -2.75095,5.962724 -4.33346,8.836826 -0.84267,1.436912 -1.54705,2.948302 -2.3666,4.397671 -0.91476,1.74637 -2.05541,3.35635 -3.24718,4.92167 -1.69552,2.38021 -3.40506,4.74066 -5.33601,6.93713 -0.43498,0.45386 -1.08761,1.16192 -1.58381,1.587 -0.19406,0.16625 -0.41017,0.30487 -0.61526,0.45731 4.10322,-2.42981 8.20645,-4.85961 12.30967,-7.28941 0,0 -11.73298,9.44067 -11.73298,9.44067 v 0 c 10.0921,-5.93526 10.7274,-4.48406 15.04799,-9.89803 1.84463,-2.32975 3.62282,-4.7116 5.42807,-7.07187 1.22617,-1.710989 2.42105,-3.455628 3.46959,-5.281202 0.65309,-1.396111 1.21634,-2.83395 1.93646,-4.199309 1.43996,-2.967046 2.926,-5.912706 4.22796,-8.944553 1.47437,-3.839386 2.93489,-7.684806 4.56214,-11.463489 1.76723,-4.258046 3.57472,-8.503954 5.91184,-12.488743 0,0 -13.77331,6.346397 -13.77331,6.346397 z"
     id="path41"
     style="fill:#ff2000;fill-opacity:1" />
  <path
     inkscape:connector-curvature="0"
     d="m 338.05324,45.917463 c -1.69555,3.326749 -3.90222,6.368406 -6.0093,9.442307 -0.67346,0.969612 -1.71443,2.422217 -2.31585,3.460925 -0.424,0.732286 -1.79736,3.483464 -2.1334,4.158581 -0.95232,1.913274 -1.6438,3.343416 -2.59256,5.290056 -2.57297,5.245728 -5.54234,10.28123 -8.26638,15.446186 -1.06724,2.028921 -2.04282,4.107408 -2.66411,6.317669 -0.79473,3.088602 -1.79925,6.123454 -2.81239,9.146598 -0.79518,2.328075 -1.44272,4.702965 -2.01096,7.095305 -0.0271,0.13481 -0.0863,0.26702 -0.0813,0.40443 0.005,0.13629 -0.0127,0.4529 0.11029,0.39398 4.64705,-2.22631 9.24132,-4.56778 13.76232,-7.04006 0.15611,-0.08536 0.0435,-0.353475 0.0775,-0.528132 0.0565,-0.290274 0.29269,-1.2212 0.3543,-1.468654 0.35973,-1.41093 0.72797,-2.819369 1.35896,-4.137802 0.64117,-1.339692 1.13929,-2.150105 1.89162,-3.467736 2.48343,-4.111457 5.1934,-8.082071 7.86001,-12.076115 1.08066,-1.596933 2.12223,-3.247233 2.92691,-5.005063 0.36061,-0.787741 0.47013,-1.174732 0.74139,-1.976293 0.37276,-1.373903 0.6207,-2.780324 0.88823,-4.178385 0.16942,-0.686849 0.18106,-1.382108 0.17814,-2.082848 0.0762,-0.31287 0.11579,-1.159223 0.27893,-1.392386 0.0778,-0.111141 0.21337,-0.167826 0.32494,-0.244983 0.20032,-0.138543 0.40687,-0.267877 0.6103,-0.401815 1.66459,-1.465581 3.50615,-2.703173 5.38672,-3.870199 4.80506,-2.740966 1.21284,-0.694084 -11.54097,6.698792 -0.12771,0.07403 0.25279,-0.152649 0.38211,-0.223822 0.24327,-0.13389 0.48753,-0.241558 0.71543,-0.400882 0.0223,-0.03604 0.0637,-0.06584 0.067,-0.108112 0.0104,-0.132816 -0.0841,-0.408676 -0.17408,-0.506745 -0.0125,-0.01362 0.009,0.03574 0.0133,0.05382 0.0163,0.07659 0.0313,0.15344 0.0469,0.23016 0.0709,0.335727 0.0724,0.681881 0.13564,1.018489 0.0728,0.387825 0.18169,0.768221 0.2574,1.155497 0.3279,1.677427 0.54682,3.37531 0.77505,5.068137 0.33605,3.914982 0.53773,7.842086 0.75856,11.765429 0.28033,3.549882 0.13818,7.112824 0.24481,10.667578 0.33905,3.57537 0.54521,7.16251 0.61799,10.75292 -1.2e-4,0.47155 0.004,0.9431 -3.7e-4,1.41463 -0.008,0.98213 -0.048,1.28412 0.003,2.23893 0.0564,1.06177 0.24063,2.11433 0.36286,3.16962 0.20979,1.59331 0.19059,3.19911 0.23644,4.80073 0.0794,0.27916 -0.0233,0.67024 0.1298,0.93646 0.18586,0.32312 0.27957,1.10691 0.61111,0.93653 13.0473,-6.70498 12.32973,-2.9816 13.22017,-8.42829 0.012,-0.21785 0.0177,-0.43614 0.036,-0.65356 0.0522,-0.62027 0.13471,-1.05977 0.1761,-1.69036 0.0813,-1.23859 0.0961,-2.47953 0.0834,-3.71993 -0.42389,-6.292669 0.3917,-12.576216 1.28199,-18.79361 0.62779,-4.149212 1.4256,-8.281471 1.80094,-12.464433 0.15897,-1.885311 0.23982,-3.77543 0.33157,-5.665202 0.25395,-2.546153 0.47478,-5.095233 0.72077,-7.642144 0.0949,-0.681511 0.0951,-1.376518 0.1902,-2.057898 0.0162,-0.115783 0.0119,-0.243829 0.0742,-0.342784 0.0294,-0.04678 0.21122,-0.05922 0.16241,-0.03331 -4.49864,2.388803 -9.01185,4.750055 -13.51778,7.125083 0.0356,0.378223 0.0105,0.189403 0.15056,0.806644 0.0924,0.406895 0.20894,0.808633 0.28438,1.218997 0.34339,1.867667 0.48743,3.77259 0.65104,5.661506 0.25286,2.282837 0.23634,4.583647 0.38391,6.872497 0.0613,0.950819 0.16771,1.898238 0.24013,2.848275 0.17198,2.256181 0.27426,4.097866 0.41098,6.359658 0.27578,3.145063 0.46698,6.296488 0.69495,9.445128 0.0614,0.847653 0.0901,1.698615 0.19153,2.542413 0.18526,1.54095 0.62502,3.54735 0.93316,5.06414 0.18539,0.84224 0.35743,1.68753 0.55617,2.52672 0.21218,0.89598 0.46045,1.7831 0.67644,2.67817 0.75541,3.13037 1.3989,6.29071 2.05994,9.44213 0.29099,1.45328 0.55692,2.91354 0.73401,4.38571 0.0914,0.75976 0.12297,1.52145 0.2152,2.28072 0.0189,0.13598 -0.0124,0.28932 0.0568,0.40794 3.20518,5.49886 8.87075,-3.74764 13.83436,-7.26556 0.26746,-0.18957 -0.0261,-0.6554 -0.0232,-0.98322 0.007,-0.84411 0.0486,-1.68765 0.0598,-2.53172 0.1044,-3.04703 -0.77817,-5.97904 -1.47899,-8.90778 -0.19991,-0.83542 -0.37537,-1.6765 -0.56306,-2.51475 -0.85605,-4.00583 -1.63198,-8.024754 -2.1522,-12.088615 -0.15119,-1.429712 -0.22938,-2.86736 -0.2258,-4.305063 6.5e-4,-0.264083 0.0223,-0.528351 0.0107,-0.792179 -0.0184,-0.416861 -0.0671,-0.831833 -0.10061,-1.247749 -0.10577,-4.99593 0.36049,-9.979715 0.94923,-14.934452 0.41778,-3.321237 1.07244,-6.604905 1.53214,-9.919926 0.0887,-2.980955 0.55445,-5.923363 1.10806,-8.848008 0.40159,-1.827498 0.69749,-3.679632 1.11551,-5.503391 0.0376,-0.03756 0.15985,-0.137305 0.11277,-0.112677 -13.95107,7.296651 -14.15267,2.534142 -13.30473,10.362142 0.84385,4.722028 1.07085,9.537526 1.20148,14.324667 -1.6e-4,3.037011 0.14952,6.073223 0.30372,9.105703 0.0501,0.985595 0.0826,1.972832 0.17316,2.955536 0.15768,1.710913 0.52565,3.948974 0.78754,5.657387 0.5558,3.739384 1.52867,7.419696 2.85446,10.960525 0.2489,0.66475 0.53303,1.31577 0.79954,1.97365 1.24623,3.06531 2.54582,6.10703 3.88,9.13478 1.06089,2.2412 2.05695,4.51828 2.91964,6.84369 2.02498,5.20123 0.50143,1.76926 13.93958,-6.22385 0.36724,-0.21844 -0.30742,-0.7981 -0.43345,-1.20639 -0.11389,-0.36896 -0.35813,-1.57729 -0.43904,-1.91807 -0.0908,-0.38257 -0.19384,-0.76215 -0.29077,-1.14322 -1.21729,-3.9481 -1.48597,-8.011762 -1.64721,-12.113212 -0.1025,-3.606088 -0.004,-7.215236 0.11364,-10.819909 -0.004,-0.436264 0.0131,-0.87328 -0.0129,-1.308792 -0.0367,-0.615238 -0.11765,-1.227034 -0.17484,-1.840704 -0.1134,-1.216722 -0.3304,-3.668198 -0.45819,-4.838762 -0.45042,-3.757921 -0.23982,-1.879668 -0.63203,-5.634737 -0.38453,-3.788672 -0.76146,-7.579216 -1.31566,-11.347019 -0.0435,-0.29685 -0.0801,-0.594767 -0.13035,-0.890548 -0.24488,-1.442595 -0.0605,-0.08986 -0.28565,-1.514777 -0.16378,-1.03632 -0.24892,-2.071129 -0.31354,-3.117564 -0.1064,-1.852367 -0.0414,-3.737015 -0.32741,-5.575481 -2.77063,-5.029011 -0.52338,-1.401288 -13.42388,7.447675 -0.2247,0.154132 0.21087,0.502516 0.31732,0.753346 0.40172,0.946601 0.85609,1.87062 1.24531,2.822428 0.30962,0.757151 0.57788,1.530565 0.86682,2.295848 1.30253,3.778453 2.41192,7.627098 3.27816,11.529289 0.0844,0.380136 1.01123,4.894169 1.1072,5.360803 0.27358,1.260974 0.74041,3.552158 1.12876,4.800492 0.25963,0.834559 0.58713,1.646635 0.89943,2.462944 0.91304,2.386511 1.95711,4.711154 3.01344,7.036349 0.96887,1.882441 1.7731,3.849024 2.75189,5.726401 0.30327,0.581693 0.64243,1.14398 0.95945,1.7183 1.02164,1.85085 0.86008,1.56815 1.81874,3.41593 0.8261,1.5467 1.51262,3.16101 2.16169,4.788 0.31953,0.80094 0.63719,1.59672 0.87509,2.42681 0.11109,0.38764 0.19032,0.78372 0.28548,1.17557 0.46442,2.3417 0.49871,4.7353 0.42224,7.11256 -0.0423,0.63298 -0.0574,1.2699 -0.12692,1.90102 -0.0117,0.10623 -0.14318,0.36659 -0.0486,0.31689 13.76115,-7.22882 15.21364,-2.58895 13.08228,-8.17356 -0.87598,-2.77372 -1.45988,-5.62283 -2.14814,-8.44508 -1.45816,-5.979224 -0.1084,-0.0551 -1.45726,-6.121377 -0.21613,-1.015247 -0.43437,-2.030047 -0.64838,-3.04574 -0.4617,-2.191144 -0.92084,-4.309444 -1.26985,-6.52526 -0.60512,-3.841903 -0.89634,-7.711212 -1.18637,-11.58594 -0.30533,-7.062884 0.0389,-14.129731 0.51304,-21.176244 0.15679,-2.560995 0.3507,-5.119853 0.58373,-7.675041 0.0189,-0.336888 0.0531,-0.672335 0.0995,-1.006384 0,0 -13.59368,6.916463 -13.59368,6.916463 v 0 c 0.0453,0.298599 0.0728,0.599126 0.0835,0.901168 0.17439,2.399386 0.25624,4.804706 0.30828,7.209547 0.19315,6.936495 0.19986,13.875225 0.414,20.811194 0.0404,1.448332 0.0372,2.898535 0.1212,4.344996 0.11726,2.019968 0.54373,5.517049 0.79243,7.536342 0.14822,1.203528 0.26803,2.41141 0.46228,3.608372 0.23692,1.459944 0.98066,4.685654 1.30588,6.139354 1.08289,4.98395 2.08181,10.00864 2.52386,15.09589 0.0102,0.34309 -0.28596,1.16195 0.0306,1.02927 14.18482,-5.94544 13.84044,-2.06716 13.36845,-8.81184 -0.15639,-2.45387 -0.21829,-4.93373 -0.736,-7.34488 -0.30224,-1.10273 -0.36308,-1.48218 -0.82406,-2.53358 -0.18043,-0.41152 -0.40344,-0.80302 -0.60391,-1.20516 -0.79312,-1.591 -1.57126,-3.189356 -2.35913,-4.782953 -0.93039,-1.707448 -1.82439,-3.436656 -2.76097,-5.140209 -1.00812,-1.833695 -2.11482,-3.616423 -2.97133,-5.531414 -0.92832,-1.868425 -1.27173,-2.48412 -2.08564,-4.438941 -1.27995,-3.074145 -2.16401,-6.284229 -2.92179,-9.521984 -1.37414,-5.696918 -2.86809,-11.365225 -4.36444,-17.030934 -0.70835,-2.854759 -0.48317,-1.8172 -1.01328,-4.388076 -0.0757,-0.367377 -0.16933,-0.731812 -0.22198,-1.103204 -0.0319,-0.22529 0.17202,-0.784524 -0.0311,-0.681919 -13.54347,6.842242 -11.49287,12.119373 -13.35379,6.864637 0.26034,0.444283 0.34175,0.990434 0.40765,1.492457 0.15381,1.171821 0.13836,2.355006 0.19771,3.532959 0.0645,1.949899 0.0747,3.908098 0.78698,5.757604 0.98119,3.535075 1.56027,7.16311 2.05463,10.794482 0.29984,2.734886 0.54767,5.470256 0.60521,8.223383 0.059,2.823795 -0.0283,1.738859 -0.13072,4.328557 -0.0175,0.441655 -0.008,0.883964 -0.0122,1.325945 0.14,3.52489 0.3256,7.046555 0.51533,10.56911 0.0477,0.85772 0.2385,4.27115 0.27998,5.09907 0.0421,0.83978 0.055,1.68121 0.11545,2.51988 0.12205,1.69412 0.38317,3.37842 0.71587,5.04272 0.11243,0.64317 0.27439,1.46003 0.3201,2.12069 0.0195,0.2823 0.13001,0.59551 0.004,0.84891 -0.0597,0.12005 -0.51806,0.005 -0.39832,-0.0557 13.4034,-6.75002 17.65158,-3.70492 13.26454,-6.73447 -1.22766,-2.13501 -2.19881,-4.41208 -3.21449,-6.65201 -1.36374,-2.98143 -2.80047,-5.927684 -4.16031,-8.910436 -0.60497,-1.524203 -0.93865,-2.311187 -1.46929,-3.862058 -0.96799,-2.829128 -1.6936,-5.729221 -2.3336,-8.647959 -0.16143,-0.875383 -0.35153,-1.745963 -0.48431,-2.626149 -0.74112,-4.912984 -0.70535,-9.890472 -0.83338,-14.843471 -0.23587,-10.472274 0.082,4.428945 -0.083,-6.054546 -0.0462,-2.93226 -0.235,-5.861822 -0.2179,-8.795127 -0.017,-0.949071 0.01,-1.87464 0.0577,-2.821251 0.009,-0.179965 0.17956,-0.612063 0.0142,-0.540394 -13.84222,6.00047 -15.24023,1.687847 -13.57607,6.607901 -0.009,1.719674 -0.2992,3.428428 -0.50941,5.130245 -0.2664,1.734462 -0.55491,3.465207 -0.83872,5.196906 -0.16743,1.021623 -0.3884,2.034911 -0.5237,3.061283 -0.038,0.288174 -0.0367,0.580175 -0.055,0.870262 -0.13122,3.173306 -0.41624,6.338212 -0.7097,9.499923 -0.39999,5.130089 -0.98147,10.242761 -1.52624,15.359092 -0.0461,0.480814 -0.1208,0.95974 -0.13818,1.442442 -0.009,0.262722 0.0366,0.524521 0.0579,0.786546 0.11792,1.44877 0.27656,2.894756 0.56102,4.321701 0.32619,1.62121 0.75269,3.20215 1.15488,4.80588 0.56891,2.26854 0.53641,2.20501 1.0448,4.57483 0.17655,0.82295 0.35195,1.64614 0.52792,2.46921 0.72298,3.75622 1.43404,7.56613 1.26785,11.40902 -0.076,0.81338 -0.11984,1.68508 -0.33467,2.48115 -0.0769,0.2848 -0.5869,0.96073 -0.32625,0.82262 13.14628,-6.96615 10.79791,-11.96588 13.20771,-6.32237 0.0367,0.0859 -0.0752,-0.17111 -0.11277,-0.25666 -0.53226,-2.13133 -1.05733,-4.26431 -1.70244,-6.36552 -1.35298,-4.77319 -2.53362,-9.59268 -3.50547,-14.458448 -1.05519,-5.51609 -1.80795,-11.099873 -2.04817,-16.714961 -0.13889,-2.722164 -0.2151,-3.6976 -0.24882,-6.418949 -0.0122,-0.988289 0.0179,-1.976766 0.008,-2.965082 -0.0231,-2.337723 -0.15882,-4.672842 -0.25447,-7.008094 -0.12977,-1.960293 -0.27785,-3.921848 -0.29865,-5.887343 -10e-4,-0.09535 0.0349,-1.718177 0.008,-2.103544 -0.0133,-0.194194 -0.0533,-0.385633 -0.08,-0.57845 -4.54061,2.286339 -9.12468,4.488353 -13.62184,6.859018 -0.0864,0.04558 0.0554,0.188073 0.0702,0.284668 0.0179,0.116186 0.0216,0.234179 0.0278,0.351575 0.0333,0.633562 0.0273,1.269036 0.0275,1.903101 -0.0439,2.52022 -0.26971,5.034752 -0.65139,7.526555 -0.0679,0.42759 -0.15413,0.852672 -0.20376,1.282769 -0.16899,1.464634 0.0147,2.955645 -0.0627,4.423606 -0.13255,3.963512 -0.36013,7.921176 -0.79248,11.865177 -0.78264,7.382672 0.0923,-0.760321 -0.78825,7.073175 -0.28111,2.500627 -0.49193,4.709827 -0.80554,7.204377 -0.13073,1.03981 -0.30025,2.07453 -0.42844,3.11465 -0.0832,0.67487 -0.13703,1.35302 -0.20555,2.02952 -0.12043,1.94923 -0.23062,4.0389 -0.97268,5.86718 -2.82304,4.62866 0.7615,-1.3633 12.74017,-7.22634 0.32792,-0.1605 0.36777,0.63082 0.54763,0.94854 0.007,0.0132 -0.14525,-0.54104 -0.13414,-0.53196 -0.21079,-1.56117 -0.35633,-3.13034 -0.55108,-4.69352 -0.24082,-2.19747 -0.38344,-4.40475 -0.56348,-6.607826 -0.24439,-3.580636 -0.57267,-7.163013 -0.57727,-10.753686 -0.118,-3.53358 -0.32107,-7.062557 -0.47386,-10.594602 -0.24755,-3.943052 -0.39321,-7.892703 -0.78261,-11.825466 -0.13322,-1.747367 -0.35814,-3.502603 -0.40924,-5.255133 -0.0289,-0.989679 0.0474,-1.12804 -4.7e-4,-1.991646 -0.0101,-0.182711 -0.0392,-0.363876 -0.0588,-0.545814 -0.1478,-0.666283 -0.42885,-1.4488 -1.06849,-1.812448 -0.0699,-0.03972 -0.15716,-0.03368 -0.23575,-0.05052 -0.44535,0.06586 -1.05224,0.327818 -1.43632,0.54838 -12.88285,7.398151 -9.10114,4.895138 -13.96456,8.13843 -1.85621,1.274943 -3.68568,2.606982 -5.30544,4.178383 -0.20748,0.281308 -0.45718,0.535916 -0.62245,0.843924 -0.32562,0.606852 -0.32081,1.67983 -0.39471,2.364541 -0.0267,0.612358 -0.10445,1.222376 -0.16678,1.832005 -0.17819,1.300509 -0.43065,2.593843 -0.80108,3.853794 -0.8211,2.294719 -2.05997,4.39344 -3.34133,6.458632 -2.4697,4.067047 -5.04664,8.067551 -7.65923,12.044059 -1.03175,1.708275 -2.13912,3.403036 -2.86719,5.272253 -0.2536,0.65108 -0.3985,1.33953 -0.61159,2.00497 -0.10342,0.32295 -0.21349,0.64374 -0.32024,0.96561 -0.14036,0.40317 -0.35304,1.06363 -0.55209,1.46 -0.0762,0.15178 -0.42787,0.50123 -0.2738,0.42975 4.55002,-2.11095 8.98892,-4.4555 13.5322,-6.580907 0.0768,-0.03594 0.0643,0.704467 0.055,-0.04653 0.218,-2.243596 0.78039,-4.436225 1.44703,-6.584808 1.03902,-3.210185 2.20004,-6.377897 3.43106,-9.519398 0.52713,-1.953986 1.11553,-3.886812 2.0292,-5.705362 2.44566,-5.12176 5.06956,-10.155462 7.71498,-15.176274 2.42028,-4.382367 4.72914,-8.834574 7.56968,-12.968103 2.25309,-3.358896 4.51714,-6.720659 7.02281,-9.898133 0,0 -13.92294,6.091945 -13.92294,6.091945 z"
     id="path43"
     style="fill:#ff2000;fill-opacity:1" />
</svg>
